<?xml version="1.0" standalone="no"?>
<!DOCTYPE svg PUBLIC "-//W3C//DTD SVG 1.1//EN" "http://www.w3.org/Graphics/SVG/1.1/DTD/svg11.dtd" >
<svg xmlns="http://www.w3.org/2000/svg" xmlns:xlink="http://www.w3.org/1999/xlink" version="1.1">
<metadata>
Created by FontForge 20170731 at Fri Nov 23 20:56:51 2007
 By Aleksey,,,
Copyright (c) Comedy Central, 1991. All rights reserved.
</metadata>
<defs>
<font id="SouthPark_Cyr" horiz-adv-x="1366" >
  <font-face 
    font-family="South Park Cyrillic"
    font-weight="400"
    font-stretch="normal"
    units-per-em="2048"
    panose-1="2 0 5 6 0 0 0 2 0 2"
    ascent="1638"
    descent="-410"
    x-height="1274"
    cap-height="1638"
    bbox="-33 -462 1949 1744"
    underline-thickness="123"
    underline-position="-439"
    unicode-range="U+0020-0451"
  />
<missing-glyph horiz-adv-x="1411" 
d="M434 205l-69 -156l-299 17l636 1544l236 -4l371 -1590l-322 13l-33 145zM780 1110l-252 -647l387 -25z" />
    <glyph glyph-name=".notdef" horiz-adv-x="1411" 
d="M434 205l-69 -156l-299 17l636 1544l236 -4l371 -1590l-322 13l-33 145zM780 1110l-252 -647l387 -25z" />
    <glyph glyph-name=".null" horiz-adv-x="0" 
 />
    <glyph glyph-name="nonmarkingreturn" horiz-adv-x="682" 
 />
    <glyph glyph-name="space" unicode=" " horiz-adv-x="682" 
 />
    <glyph glyph-name="exclam" unicode="!" horiz-adv-x="618" 
d="M143 1466v-333l2 -678h338l2 678v333h-342zM139 358v-358h344v358h-344z" />
    <glyph glyph-name="quotedbl" unicode="&#x22;" horiz-adv-x="899" 
d="M170 1462l276 -465l99 58l-328 442zM373 1565l289 -443h77l-297 443h-69z" />
    <glyph glyph-name="numbersign" unicode="#" horiz-adv-x="1614" 
d="M362 537l-215 -13l-61 -190l215 -4l-74 -350l232 -3l71 351l295 10l-86 -352l209 -11l86 353l260 14l72 219l-289 -10l86 385l289 12l49 223l-303 -38l70 358l-211 2l-72 -358l-293 -2l74 358h-188l-99 -361l-370 3l14 -205l321 4zM582 541l65 391l301 4l-92 -395h-274z
" />
    <glyph glyph-name="dollar" unicode="$" 
d="M1250 1121l-372 -59q-28 71 -50.5 98.5t-74.5 55.5v-289q304 -81 406 -171q135 -121 135 -307q0 -109 -48.5 -200t-124 -152t-160.5 -88.5t-208 -32.5v-189h-146v189q-147 13 -238.5 47.5t-158 95.5t-102.5 131.5t-54 170.5l404 47q18 -99 48.5 -143t100.5 -78v353
q-202 56 -286.5 97t-146.5 131.5t-62 220.5q0 178 124.5 297.5t370.5 132.5v99h146v-99q224 -14 342.5 -106t154.5 -252zM607 1221q-64 -21 -89 -52t-25 -73q0 -44 25.5 -76.5t88.5 -54.5v256zM753 237q85 19 124.5 62.5t39.5 97.5q0 47 -33.5 86.5t-130.5 73.5v-320z" />
    <glyph glyph-name="percent" unicode="%" horiz-adv-x="2048" 
d="M1344 1491h211l-847 -1566h-209zM99 1106q0 102 44.5 194t136 141.5t216.5 49.5q184 0 290 -105t106 -280q0 -176 -106 -281t-290 -105q-125 0 -216.5 49.5t-136 141.5t-44.5 195zM380 1104q0 -124 40 -180q26 -37 76 -37t75 37q40 56 40 180q0 123 -40 180
q-25 36 -75 36t-76 -36q-40 -56 -40 -180zM1156 313q0 103 44 194.5t136 141.5t216 50q185 0 291 -105.5t106 -280.5t-106 -280.5t-291 -105.5q-124 0 -216 50t-136 141.5t-44 194.5zM1437 311q0 -124 40 -180q25 -36 75 -36t76 36q40 56 40 180t-40 181q-26 36 -76 36
t-75 -37q-40 -56 -40 -180z" />
    <glyph glyph-name="ampersand" unicode="&#x26;" horiz-adv-x="1821" 
d="M1307 713l318 -71q-25 -88 -48 -141t-65 -125l153 -105q28 -18 72 -43l-219 -252q-60 32 -124.5 74t-115.5 72q-106 -70 -212 -102q-147 -44 -334 -44q-293 0 -436 122t-143 296q0 125 84 236.5t275 188.5q-80 97 -110 168.5t-30 145.5q0 156 119 257t361 101
q247 0 363 -96t116 -230q0 -75 -35.5 -144t-85.5 -112t-179 -128q107 -107 223 -199q31 62 53 131zM839 970q79 43 122 93.5t43 95.5q0 47 -36 79.5t-99 32.5q-62 0 -101 -36t-39 -85q0 -62 110 -180zM694 614q-84 -59 -111.5 -101t-27.5 -89q0 -73 63 -130t164 -57
q109 0 245 85q-130 100 -333 292z" />
    <glyph glyph-name="quotesingle" unicode="'" horiz-adv-x="569" 
d="M85 1466h406v-242l-64 -297h-276l-66 297v242z" />
    <glyph glyph-name="parenleft" unicode="(" horiz-adv-x="797" 
d="M463 1491h254q-131 -290 -189 -536q-49 -209 -49 -446q0 -457 238 -940h-254q-194 275 -272.5 497.5t-78.5 466.5q0 253 82.5 481t268.5 477z" />
    <glyph glyph-name="parenright" unicode=")" horiz-adv-x="797" 
d="M334.142 1491h-253.923q130.96 -290 188.942 -536q48.9854 -209 48.9854 -446q0 -457 -237.928 -940h253.923q193.94 275 272.417 497.5q78.4756 222.5 78.4756 466.5q0 253 -82.4746 481t-268.418 477z" />
    <glyph glyph-name="asterisk" unicode="*" horiz-adv-x="1139" 
d="M453 1491h221l-18 -151q-6 -55 -25 -125q38 19 50 26q42 23 64 33l139 66l69 -211l-154 -32q-42 -8 -125 -11q56 -44 89 -80l104 -113l-180 -135l-74 135q-16 29 -52 113q-39 -92 -52 -113l-75 -135l-185 135l112 113q47 47 92 80q-46 4 -121 18l-155 25l72 211l139 -63
q22 -10 109 -62q-19 84 -24 125z" />
    <glyph glyph-name="plus" unicode="+" horiz-adv-x="1352" 
d="M127 894h383v385h323v-385h385v-324h-385v-383h-323v383h-383v324z" />
    <glyph glyph-name="comma" unicode="," horiz-adv-x="682" 
d="M124 404h435v-335q0 -185 -77 -292t-263 -189l-95 178q116 54 159.5 107.5t48.5 126.5h-208v404z" />
    <glyph glyph-name="hyphen" unicode="-" horiz-adv-x="682" 
d="M45 692h592v-315h-592v315z" />
    <glyph glyph-name="period" unicode="." horiz-adv-x="682" 
d="M124 408h435v-408h-435v408z" />
    <glyph glyph-name="slash" unicode="/" horiz-adv-x="569" 
d="M367 1491h208l-368 -1515h-206z" />
    <glyph glyph-name="zero" unicode="0" 
d="M84 739q0 -172 29.5 -311t83.5 -221q71 -115 186 -172.5t299 -57.5q330 0 465 183q135 184 135 583q0 45 -2 97.5t-6 105.5t-11.5 103.5t-17.5 91.5q-20 86 -55 150.5t-96 121.5q-60 60 -154 96.5t-244 36.5q-309 0 -458 -168q-37 -41 -66 -107.5t-48.5 -149.5
t-29.5 -180t-10 -202zM487 737q0 70 3.5 137.5t9.5 126t15 103.5t22 70q47 102 147 102q98 0 147 -100q13 -25 21 -71t14 -105.5t8.5 -129t2.5 -143.5q0 -100 -6.5 -173t-16.5 -120q-20 -94 -65.5 -137t-106.5 -43q-92 0 -145 102q-50 101 -50 381z" />
    <glyph glyph-name="one" unicode="1" horiz-adv-x="956" 
d="M817 1577l-293 4q-43 -22 -71.5 -34.5t-53 -23t-49 -19.5t-59.5 -25.5t-84 -41t-123 -63.5l-4 -301q35 10 60.5 20.5t47 20.5t42 20.5t45 22.5t41 19.5t34 15.5t39 17.5t53.5 25.5l-10 -1235h412z" />
    <glyph glyph-name="two" unicode="2" 
d="M53 0q6 45 9.5 94t9.5 98.5t19 95.5t40 87q29 43 76 84t107.5 83t128 85t139.5 90q45 31 100 59.5t106.5 55t89 49t50.5 39.5q12 18 18 52t6 72q0 41 -3 80t-5 66q-4 33 -32.5 68.5t-68.5 66.5t-85 49.5t-82 18.5q-129 -2 -197.5 -15.5t-101.5 -42t-42 -72.5t-18 -106
h-180q23 125 50.5 203t83 123t149.5 62.5t248 21.5q215 0 333.5 -49.5t186.5 -151.5q35 -51 54.5 -98t19.5 -111q0 -35 1 -74t-1 -79.5t-10.5 -78.5t-27 -69t-58.5 -62.5t-83 -60t-78.5 -49t-48.5 -29.5q-30 -20 -73 -47.5t-84 -53.5t-74 -45.5t-45 -25.5q-23 -10 -77 -42.5
t-109.5 -74.5t-97.5 -85t-38 -76h908l10 -205h-1223z" />
    <glyph glyph-name="three" unicode="3" 
d="M170 1493q104 0 157.5 -1t80.5 -1q28 0 39.5 1t31.5 1h60h125l563 -2q0 -35 2 -79t4 -83t1 -67.5t-5 -32.5q-72 -60 -167 -146t-196 -163q25 4 58.5 1t68.5 -11.5t69 -24t60 -35.5q33 -25 53.5 -70t33 -100t16.5 -114.5t4 -110.5q0 -64 -8.5 -125.5t-32 -115.5t-63.5 -99
t-103 -76q-31 -16 -95.5 -23.5t-138 -11.5t-147.5 -4h-125q-90 0 -146.5 5t-89 19.5t-49 39t-24.5 61.5t-13.5 88t-19.5 119l188 2q-6 -70 8.5 -105.5t59.5 -50t127 -12.5t211 8q41 2 65.5 23.5t39 55.5t18.5 79t4 94v111q0 61 -9 113t-33 87t-69 35h-227v152q4 0 40 24.5
t89 63.5t114.5 86t120 91t104.5 79t67 49h-2q-27 -2 -95 -2q-65 0 -152 -1t-188 -1h-192h-170h-123v180z" />
    <glyph glyph-name="four" unicode="4" 
d="M782 426l2 -426h355l-2 426h184l2 164h-184v901h-355l-741 -883l-2 -182h741zM784 590h-532l532 639v-639z" />
    <glyph glyph-name="five" unicode="5" 
d="M1249 1456l4 -151h-891l-4 -334h435h110q58 0 110 -7.5t98 -23.5t81 -49t52.5 -79t24.5 -98t7 -108v-106q0 -94 -2 -184.5t-22.5 -161t-69.5 -113.5t-142 -41q-71 2 -168.5 1t-199.5 -1q-148 0 -267.5 4t-222.5 33q-37 26 -53 63t-22.5 82t-6.5 94q0 52 -2 107h158
q-18 -96 22.5 -146.5t112.5 -73t158 -25.5t158 -3q73 0 109 7.5t49.5 41t12.5 103t-1 192.5v125q0 62 -10.5 109t-34 74.5t-68.5 27.5q-80 0 -137.5 -1t-122.5 -1h-152t-229 2v641h1126z" />
    <glyph glyph-name="six" unicode="6" 
d="M999 1229h-294q-25 0 -66 -3t-81 -11.5t-73.5 -24.5t-46.5 -43q-10 -21 -16 -33t-11 -37.5t-9.5 -76t-10.5 -146.5q2 55 50 81t116 36t142.5 9t127.5 -1q50 0 86.5 1t68.5 -4t60.5 -21.5t63.5 -51.5q33 -35 51.5 -83t25.5 -103t8 -113.5t1 -111.5q-2 -52 -3 -112.5
t-10.5 -118.5t-27.5 -111.5t-56 -90t-98.5 -54t-150.5 -5.5q-152 -2 -284 -1t-232.5 23.5t-157.5 77t-57 160.5q0 39 -1 92.5t-1 114.5t-1 129t-1 135q0 141 3 252t19.5 192.5t50 137t97 89.5t161 46t238.5 8h135h74h35h16h18h41v-227zM410 483q2 -127 33.5 -190.5t75.5 -88
t93 -24.5h90q39 0 75 18.5t63.5 53.5t43 84t15.5 110q0 86 -8 152t-32.5 111t-72 68.5t-127.5 23.5q-49 0 -97 -13.5t-85 -48t-56.5 -96t-10.5 -160.5z" />
    <glyph glyph-name="seven" unicode="7" horiz-adv-x="1333" 
d="M90 1466l4 -170h809q0 -2 3 -20.5t2 -44t-8 -54t-26 -51.5q-43 -77 -98 -175.5t-108.5 -190.5t-99.5 -174t-72.5 -127t-28.5 -49v-410h309q2 68 1 117t-2 91t0 82t5 89l21.5 38t56.5 100.5t81 143t95 165.5t99.5 167t95.5 150v327z" />
    <glyph glyph-name="eight" unicode="8" horiz-adv-x="1313" 
d="M328 801q-97 53 -142 112q-59 88 -59 199q0 92 24.5 176t110.5 144q68 45 163 62t208 17q147 0 245.5 -13t170.5 -71q34 -28 56.5 -65t35 -80t16.5 -88t4 -88q0 -102 -57 -186q-39 -62 -131 -123q119 -58 177 -151t58 -210q0 -55 -7 -110.5t-23.5 -104.5t-42 -91
t-62.5 -69q-37 -24 -82 -37.5t-97 -19.5t-112 -6h-118q-117 0 -198 3t-139.5 18.5t-98.5 45t-72 82.5q-17 27 -28 63t-19.5 75t-11.5 77.5t-3 71.5q0 129 54.5 223.5t179.5 143.5zM494 1194q-2 -86 7 -138t30.5 -81t53 -38t74.5 -9q62 0 95.5 22.5t50 59.5t19.5 84t3 96
q0 78 -47 125t-118 47q-76 0 -122 -46t-46 -122zM477 504q-2 -86 7.5 -138.5t31 -81t53 -37.5t74.5 -9q62 0 95.5 22.5t50 59t19.5 84t3 96.5q0 78 -47 125t-119 47q-76 0 -122 -46t-46 -122z" />
    <glyph glyph-name="nine" unicode="9" 
d="M330 205h350q49 0 103.5 23.5t82.5 72.5q11 18 18 33.5t12 38t10 57.5t9 94q-12 -16 -53 -24t-96 -11.5t-115.5 -2.5t-111.5 1q-99 0 -174.5 28t-143.5 97q-35 35 -51 84t-23.5 104.5t-7.5 112.5v111q-6 111 16.5 197t81 142t157 84t241.5 26q121 6 222 0.5t176 -33
t120 -84t53 -150.5q8 -92 15.5 -199.5t7.5 -242.5q0 -199 -35 -339t-105.5 -229.5t-178 -130t-255.5 -40.5h-125t-68.5 -1t-33.5 -1h-18h-23t-49 2zM907 1024q0 100 -20.5 155.5t-56 82t-80.5 30.5t-95 4q-80 0 -133 -60t-53 -183q0 -121 11.5 -186.5t35 -96.5t59 -37
t84.5 -6q56 0 103 4t81 32t52 88t12 173z" />
    <glyph glyph-name="colon" unicode=":" horiz-adv-x="682" 
d="M124 1062h435v-408h-435v408zM124 408h435v-408h-435v408z" />
    <glyph glyph-name="semicolon" unicode=";" horiz-adv-x="682" 
d="M124 1062h435v-408h-435v408zM124 404h435v-335q0 -185 -77 -292t-263 -189l-95 178q116 54 159.5 107.5t48.5 126.5h-208v404z" />
    <glyph glyph-name="less" unicode="&#x3c;" horiz-adv-x="1352" 
d="M1244 112l-1137 473v296l1137 472v-355l-691 -266l691 -267v-353z" />
    <glyph glyph-name="equal" unicode="=" horiz-adv-x="1352" 
d="M126 1141h1092v-325h-1092v325zM126 649h1092v-324h-1092v324z" />
    <glyph glyph-name="greater" unicode="&#x3e;" horiz-adv-x="1352" 
d="M108.38 112l1136.65 473v296l-1136.65 472v-355l690.789 -266l-690.789 -267v-353z" />
    <glyph glyph-name="question" unicode="?" horiz-adv-x="1194" 
d="M727 461q8 37 7 77t2 77.5t15.5 69.5t49.5 54q39 25 81 38.5t79.5 31.5t72.5 51t64 96q8 21 15 59t12 78t7.5 77.5t2.5 58.5q0 51 -9.5 103t-30 101.5t-52 91.5t-76.5 72q-33 23 -78 32t-97.5 11t-107.5 0t-111 -2q-139 0 -229 -9t-145.5 -47t-84 -117t-44.5 -216l186 -4
q2 66 23.5 107t54.5 65.5t72.5 33.5t80.5 11t77 0t63 -2q69 0 114 -25.5t70 -65.5t33 -87t9 -89t-4 -74t-7 -42q-11 -35 -35.5 -56.5t-56 -35.5t-63.5 -24.5t-56 -18.5q-72 -27 -124 -55.5t-81 -85.5q-29 -60 -35 -133.5t-6 -171.5v-37zM381 358v-358h360v358h-360z" />
    <glyph glyph-name="at" unicode="@" horiz-adv-x="1516" 
d="M1156 1148l-125 -791q-4 -24 -4 -35q0 -18 10 -28t30 -10q46 0 104 41q86 60 141.5 173.5t55.5 274.5q0 264 -151.5 417t-406.5 153q-188 0 -342.5 -90t-238 -261t-83.5 -378q0 -322 181.5 -510.5t468.5 -188.5q140 0 269.5 47t248.5 140h205q-82 -97 -156 -152
q-109 -81 -253 -132t-310 -51q-231 0 -415 107t-287.5 305t-103.5 436q0 250 107.5 454.5t285.5 313.5t422 109q315 0 512.5 -200t197.5 -517q0 -188 -77 -344t-226 -247q-115 -70 -216 -70q-60 0 -98 28t-56 89q-67 -65 -122 -91.5t-119 -26.5q-133 0 -229 111t-96 318
q0 245 123 443t305 198q71 0 125.5 -33t109.5 -115l18 113h195zM490 493q0 -119 51 -185q38 -49 97 -49q64 0 116 54.5t91 217.5t39 293q0 98 -42 148t-100 50q-66 0 -116 -50q-67 -67 -101.5 -212.5t-34.5 -266.5z" />
    <glyph glyph-name="A" unicode="A" horiz-adv-x="1411" 
d="M434 205l-69 -156l-299 17l636 1544l236 -4l371 -1590l-322 13l-33 145zM780 1110l-252 -647l387 -25z" />
    <glyph glyph-name="B" unicode="B" horiz-adv-x="1346" 
d="M756 1632q53 0 92 -6t69.5 -19.5t57 -33t55.5 -45.5q57 -51 90 -114.5t35 -141.5q0 -33 3 -78t2 -91t-7 -88t-23 -67q-10 -16 -13 -20t-9 -9.5t-20.5 -20.5t-47.5 -52q68 -35 112 -142.5t48 -248.5q4 -117 -47 -208t-143 -147q-15 -10 -19 -16t-8 -11t-15.5 -10.5
t-39.5 -9.5q-154 -24 -203 -24l-565 -17l-35 1602zM698 969q74 2 112 25.5t53.5 60.5t15.5 82v94q-2 65 -44 111.5t-145 43.5l-297 -8l13 -417zM707 268q57 2 103 21.5t77 50.5t46 66.5t15 72.5q0 31 -19.5 68t-53 67.5t-82 51t-107.5 18.5l-278 -16l4 -412z" />
    <glyph glyph-name="C" unicode="C" horiz-adv-x="1325" 
d="M1176 467q2 -133 -26 -219t-90.5 -136.5t-162.5 -72t-248 -23.5q-55 0 -118.5 8.5t-124 28t-112.5 53t-85 84.5q-29 43 -44 125t-22.5 176.5t-7.5 188.5v162q2 170 8.5 306t49.5 232.5t139 150.5t276 58q150 4 252.5 -4t164.5 -47t93 -118t41 -216l-258 -6q-6 16 -7 27.5
t-4 21.5t-8 22.5t-20 30.5q-16 23 -41.5 35.5t-93.5 12.5q-49 0 -86 -3.5t-65.5 -11.5t-52 -21.5t-44.5 -33.5q-39 -41 -55 -116t-20.5 -161t-1 -168.5t3.5 -140.5q0 -61 2 -117.5t8 -103.5t19.5 -82t37.5 -51q19 -12 33 -18.5t30.5 -8.5t38 0t56.5 2q63 0 109 -1t77 11.5
t51.5 45t34.5 100.5z" />
    <glyph glyph-name="D" unicode="D" horiz-adv-x="1317" 
d="M571 1626q99 0 170.5 -10t126 -32.5t95.5 -58.5t81 -87q39 -49 59.5 -131t30 -174.5t9.5 -186.5v-170q0 -59 1 -101t-1 -87t-7.5 -102.5t-17.5 -147.5q-6 -39 -23.5 -80t-47 -78t-69.5 -64.5t-91 -41.5q-37 -11 -82 -20t-90 -17t-86 -12.5t-72 -4.5h-391v1606h405z
M463 362q14 3 43 8t59.5 12t59 15.5t43 16.5t33 18t38 30.5t38 53.5t32.5 86q6 25 14 60.5t14.5 77.5t9.5 86t-1 85q-10 97 -20.5 157t-22.5 99t-26.5 62.5t-33.5 46.5q-18 20 -57 31.5t-83 14.5t-85 2t-65 -3z" />
    <glyph glyph-name="E" unicode="E" horiz-adv-x="1288" 
d="M1075 1622l-8 -236l-629 -4l41 -503l508 41l17 -248l-504 4l35 -486l581 19l8 -164l-925 -20l-31 1568z" />
    <glyph glyph-name="F" unicode="F" horiz-adv-x="1249" 
d="M1110 1632l10 -229l-717 -53l17 -314l575 37l21 -285l-582 -45l35 -718l-246 -19l-78 1563z" />
    <glyph glyph-name="G" unicode="G" horiz-adv-x="1452" 
d="M895 721l391 45l27 -348q-27 -117 -91.5 -192.5t-162.5 -112.5q-66 -25 -144.5 -43.5t-185.5 -28.5q-121 -10 -186.5 -3t-106.5 29.5t-68.5 59.5t-70.5 86q-35 37 -56.5 99.5t-34.5 133t-20.5 141t-11.5 128.5q-12 119 -26.5 230.5t-12.5 209.5t30 179t101 141
q33 26 67 47.5t73.5 38t89 26.5t112.5 17q121 10 202 12t142 -12q52 -13 86.5 -24t57 -24.5t37 -30t26.5 -38.5q27 -47 38 -108.5t20 -139.5l-289 -29q-6 76 -37 111t-77 44t-102.5 1t-115.5 -18q-90 -17 -130 -68t-49 -132t2 -191.5t23 -245.5q13 -133 31.5 -215t49 -125
t74.5 -54.5t108 -1.5q30 4 47 4h36q19 0 42.5 5.5t66.5 21.5l45 25q31 30 50.5 62t20.5 58.5t-22.5 43t-79.5 16.5z" />
    <glyph glyph-name="H" unicode="H" horiz-adv-x="1468" 
d="M436 1593l53 -643l433 37l-17 627l320 16l82 -1569l-320 -16l-37 655l-446 -30l14 -647l-287 -3l-81 1569z" />
    <glyph glyph-name="I" unicode="I" horiz-adv-x="752" 
d="M207 1638v-1638h354l-24 1638h-330z" />
    <glyph glyph-name="J" unicode="J" horiz-adv-x="1217" 
d="M1077 1589l-51 -942q-8 -127 -12 -227.5t-33 -165.5q-12 -33 -25.5 -60.5t-32 -50t-43 -42t-61.5 -35.5q-33 -13 -53.5 -22t-43 -14t-53 -7.5t-81.5 2.5q-113 6 -180.5 18t-111.5 33.5t-72.5 53.5t-61.5 75q-29 59 -34 119.5t11 142.5l209 -37q-2 -49 13.5 -81t34 -49
t32.5 -24.5t12 -7.5q-8 0 4.5 -2t33 -5t43 -6t34.5 -3q76 -4 139.5 68.5t71.5 207.5l61 1078z" />
    <glyph glyph-name="K" unicode="K" horiz-adv-x="1448" 
d="M432 1587l27 -555l448 578l299 12l-553 -776l666 -772l-342 -31l-467 506l16 -529l-282 -12l-94 1565z" />
    <glyph glyph-name="L" unicode="L" horiz-adv-x="1341" 
d="M385 1589l117 -1284l706 33l17 -277l-1030 -47l-70 1571z" />
    <glyph glyph-name="M" unicode="M" horiz-adv-x="1589" 
d="M387 1561l387 -752l301 803l254 22l103 -1499l-291 -20l-45 694l-277 -678l-360 662l30 -740l-251 -12l-103 1503z" />
    <glyph glyph-name="N" unicode="N" 
d="M524 1612l297 -729l68 702l305 -26l-133 -1553l-240 47l-342 717l-65 -709l-299 29l131 1552z" />
    <glyph glyph-name="O" unicode="O" horiz-adv-x="1419" 
d="M240 1382q14 37 45.5 78t83 75t120 56.5t158.5 22.5q197 0 316.5 -36t186.5 -131t89.5 -264t22.5 -435q0 -193 -18.5 -332.5t-82 -229.5t-182.5 -131t-320 -35q-114 -16 -199 24t-143.5 117t-94.5 183.5t-52 225t-17 240.5t10 231.5t31.5 196.5t45.5 136v8zM426 614
q14 -43 28.5 -99t38 -107.5t61.5 -87t97 -35.5q72 0 141.5 17t110.5 65q21 24 34 64t22.5 90t13.5 109.5t4 121.5q0 213 -18.5 328.5t-58.5 169t-100.5 62.5t-144.5 9q-137 0 -190 -105.5t-53 -332.5z" />
    <glyph glyph-name="P" unicode="P" horiz-adv-x="1217" 
d="M705 1595q102 -2 171.5 -45t112.5 -111.5t60.5 -158.5t15.5 -186q-4 -86 -34 -161t-87 -131.5t-141 -89t-193 -34.5l-186 -2l-21 -660h-239l29 1590zM559 946q64 -2 108 11.5t70.5 38t37.5 57t13 67.5q0 33 -9 74t-32.5 76t-65.5 59.5t-106 26.5l-88 2l-2 -410z" />
    <glyph glyph-name="Q" unicode="Q" horiz-adv-x="1436" 
d="M1163 285q37 -35 55.5 -49.5t31 -22.5t26.5 -16.5t43 -26.5l-135 -195q-23 15 -36 23t-25.5 15t-28 18.5t-41.5 29.5q-15 11 -16 9t-4 -10.5t-17.5 -20.5t-54.5 -23q-52 -4 -89.5 -5t-74.5 0t-78 3t-96 2h-82t-83 9.5t-87 31t-95 62.5q-47 39 -72.5 114.5t-37.5 168
t-15.5 192.5t-3.5 190t4.5 207t23 226.5t54 194.5t101.5 114q10 4 21 16t38 25.5t77 26t140 16.5q115 6 193 -5.5t149 -31.5q80 -23 135.5 -66t91 -115.5t51 -177t15.5 -249.5q0 -80 3 -178.5t-2 -193.5t-22.5 -177t-56.5 -131zM915 426q17 18 27 53t15.5 81t6.5 100.5
t1 111.5q0 143 -3.5 263t-32 202t-93 121t-189.5 20q-31 -4 -60.5 -12t-56 -29.5t-49 -60.5t-37.5 -105q-14 -57 -29.5 -155t-19.5 -252t7.5 -252t37 -154.5t64.5 -79t86 -26.5t102.5 2t116.5 10q8 0 -1 5t-23.5 13.5t-28 16.5t-15.5 18v211q37 -22 49.5 -28t21.5 -11.5
t29.5 -17.5t73.5 -45z" />
    <glyph glyph-name="R" unicode="R" horiz-adv-x="1411" 
d="M252 1618l575 -31q52 -4 82.5 -8t52 -10t40 -15.5t45.5 -19.5q112 -45 170 -145q14 -25 24 -67t14.5 -88t5.5 -92t-1 -81q-11 -121 -67 -206t-153 -134q-28 -14 -83.5 -18.5t-106.5 -12.5q6 -10 27.5 -44t67.5 -109.5t122 -203.5t190 -331l-309 21l-276 446
q-13 20 -29 52t-33.5 63.5t-32 56.5t-22.5 33q-12 8 -17.5 13t-9.5 6t-12 2t-22 1l-41 4l-58 -614l-260 25zM674 1004q8 0 31.5 -1.5t52.5 -1.5q28 0 60 1.5t54 5.5q46 4 80.5 39.5t38.5 85.5q2 20 3 36.5t-3 34t-14 37t-33 43.5q-16 19 -41.5 30t-55.5 17t-59.5 9t-54.5 6
l-223 14l-29 -344z" />
    <glyph glyph-name="S" unicode="S" horiz-adv-x="1309" 
d="M406 399q4 -26 9 -41.5t11 -28t14.5 -21.5t18.5 -23q18 -23 38.5 -32t44 -11t52.5 0t61 2q50 0 90.5 19.5t71.5 48t48.5 62.5t17.5 64q0 15 1 37.5t0 45t-6.5 43t-17.5 32.5t-28.5 29.5t-42 34t-62.5 31t-92 20.5q-80 8 -131 18t-86 25.5t-61.5 36t-57.5 49.5
q-63 57 -90 145t-27 174q4 84 13.5 165t52.5 143.5t136 99.5t263 35q131 -11 213 -29.5t132 -58t78 -108.5t48 -177h-252q-14 57 -42.5 91t-58.5 50t-54.5 21.5t-28.5 7.5q-39 10 -76 7t-68.5 -14.5t-55 -30t-36.5 -38.5q-16 -27 -22 -57.5t-8 -60t0 -53.5t6 -34
q8 -35 30.5 -62.5t51 -49t60.5 -36t63 -20.5q73 -16 116 -24t72 -16.5t50.5 -16.5t54.5 -25q124 -63 186 -161q59 -97 59 -218q0 -141 -77.5 -259.5t-219.5 -180.5q-34 -14 -49.5 -21.5t-30 -9.5t-38.5 -2h-78q-92 0 -153.5 4.5t-105.5 15.5t-77 32.5t-70 56.5
q-37 37 -56.5 61.5t-29.5 51t-14 62.5t-8 91z" />
    <glyph glyph-name="T" unicode="T" horiz-adv-x="1374" 
d="M1202 1626l10 -256l-397 -29l84 -1304l-244 -17l-120 1303l-379 -43l-13 258z" />
    <glyph glyph-name="U" unicode="U" horiz-adv-x="1395" 
d="M1167 1630l66 -952q4 -66 4 -133q0 -66 -9 -130.5t-30.5 -123t-62.5 -105.5q-21 -22 -34.5 -35.5t-26.5 -23.5t-28.5 -17.5t-37.5 -17.5q-33 -12 -47.5 -18t-28.5 -10.5t-38 -9.5t-73 -17q-26 -6 -46.5 -11.5t-40 -7.5t-43 -3t-54.5 1q-64 4 -102.5 11.5t-81.5 27.5
q-43 19 -73 37.5t-51.5 41t-37 52t-31.5 72.5q-12 33 -22.5 83t-17.5 102.5t-12 98.5t-7 72l-56 945l273 18l74 -1057q8 -123 56 -182t167 -51q116 6 178.5 76.5t54.5 193.5l-86 1055z" />
    <glyph glyph-name="V" unicode="V" horiz-adv-x="1276" 
d="M418 1599l182 -763l227 755l293 -8l-504 -1567l-77 2l-389 1588z" />
    <glyph glyph-name="W" unicode="W" horiz-adv-x="1581" 
d="M406 1604l94 -736l235 705l103 -6l112 -758l203 747l277 -28l-433 -1512l-127 9l-141 677l-213 -657l-151 10l-211 1557z" />
    <glyph glyph-name="X" unicode="X" horiz-adv-x="1497" 
d="M504 1581l268 -557l272 553h289l-372 -780l376 -768h-313l-252 495l-280 -487l-349 20l467 725l-432 807z" />
    <glyph glyph-name="Y" unicode="Y" horiz-adv-x="1493" 
d="M131 1577l471 -758l12 -819l273 16l-8 781l481 784l-303 8l-312 -512l-313 496z" />
    <glyph glyph-name="Z" unicode="Z" horiz-adv-x="1456" 
d="M1167 1640l11 -223l-672 -1132l784 92l23 -246l-1120 -127l-23 234l676 1148l-733 -96l-7 228z" />
    <glyph glyph-name="bracketleft" unicode="[" horiz-adv-x="797" 
d="M135 1466h615v-316h-243v-1241h243v-316h-615v1873z" />
    <glyph glyph-name="backslash" unicode="\" horiz-adv-x="569" 
d="M202.112 1491h-207.937l367.888 -1515h205.937z" />
    <glyph glyph-name="bracketright" unicode="]" horiz-adv-x="797" 
d="M662.041 1466h-614.812v-316h242.926v-1241h-242.926v-316h614.812v1873z" />
    <glyph glyph-name="asciicircum" unicode="^" horiz-adv-x="1352" 
d="M533 1491h279l408 -813h-353l-193 491l-195 -491h-354z" />
    <glyph glyph-name="underscore" unicode="_" horiz-adv-x="1024" 
d="M-12 -154h1048v-102h-1048v102z" />
    <glyph glyph-name="grave" unicode="`" horiz-adv-x="682" 
d="M1 1491h347l164 -298h-192z" />
    <glyph glyph-name="a" unicode="a" horiz-adv-x="1373" 
d="M408 247l-69 -156l-285 -1l619 1194h217l393 -1226l-322 13l-33 145zM754 951l-252 -446l387 -25z" />
    <glyph glyph-name="b" unicode="b" horiz-adv-x="1282" 
d="M195 71l-37 1516l245 6l23 -383h199q159 -16 231 -48t127.5 -119.5t64.5 -192.5t13 -191q2 -96 -6 -183t-28 -162.5t-87.5 -135t-234.5 -99.5zM434 947l24 -542l113 -8q64 2 115 9t78.5 31t67.5 120q8 47 0 107t-16 107.5t-39.5 99.5t-151.5 84z" />
    <glyph glyph-name="c" unicode="c" horiz-adv-x="1325" 
d="M1176 554q2 -133 -26 -219t-90.5 -136.5t-162.5 -72t-248 -23.5q-55 0 -118.5 8.5t-124 28t-112.5 53t-85 84.5q-29 43 -44 125t-22.5 176.5t-7.5 188.5t8 149q48 127 84 175t87.5 83.5t99.5 55.5t217 52q165 0 225 -16t119.5 -44t107.5 -95.5t56 -226.5l-215 -8l-35 71
q-61 64 -132 80q-112 8 -158 -8t-79.5 -40t-61.5 -71.5t-32 -67.5t-20 -77q0 -61 2 -117.5t8 -103.5t19.5 -82t37.5 -51q19 -12 33 -18.5t30.5 -8.5t38 0t56.5 2q63 0 109 -1t77 11.5t51.5 45t34.5 100.5z" />
    <glyph glyph-name="d" unicode="d" horiz-adv-x="1282" 
d="M517 79q-167 40 -234.5 99.5t-87.5 135t-28 162.5t-6 183q4 86 13 191t64.5 192.5t127.5 119.5t231 48h199l23 383l245 -6l-37 -1516zM597 955q-120 -32 -151.5 -84t-39.5 -99.5t-16 -107.5t0 -107q40 -96 67.5 -120t78.5 -31t115 -9l113 8l24 542z" />
    <glyph glyph-name="e" unicode="e" horiz-adv-x="1288" 
d="M1058 1277l-22 -204l-576 -15l-8 -306l467 -37l7 -175l-445 8l44 -241l562 7l37 -188l-925 -20l-24 1157z" />
    <glyph glyph-name="f" unicode="f" horiz-adv-x="1070" 
d="M753 1609l137 -51l-60 -206l-171 34l-138 -14l-59 -28l-43 -43l-8 -111l17 -369l376 9l-17 -231l-333 -26l8 -445l-248 -8l-43 1181l43 145l60 77l68 51l163 52z" />
    <glyph glyph-name="g" unicode="g" horiz-adv-x="1282" 
d="M745 1352l154 -34l102 -69l103 -188l26 -205l-55 -1044l-57 -131l-40 -51l-97 -45l-102 -4l-334 17l-111 77l-43 85l9 172l82 51h286l-35 -51l-17 -103l103 -26l68 17l17 129l-8 194h-199q-159 16 -231 48t-127.5 119.5t-70.5 190.5t-35 179q-6 96 0.5 186t24 165t89 167
t262.5 137zM787 411l77 68l17 214l-8 223l-86 120l-102 17q-151 -10 -209.5 -49t-67 -79.5t-18.5 -128.5q-8 -47 0 -107t16 -107.5t39.5 -99.5t151.5 -84z" />
    <glyph glyph-name="h" unicode="h" horiz-adv-x="1468" 
d="M454 1558l35 -522l358 34l154 -17l189 -94l72 -133l22 -167l23 -512l-320 -16l-25 441l-12 104l-60 86l-94 17l-292 -23l14 -647l-287 -3l-68 1452h291z" />
    <glyph glyph-name="i" unicode="i" horiz-adv-x="752" 
d="M543 1252l63 -1150h-354l-31 1142zM228 1630h268l-8 -260l-244 8z" />
    <glyph glyph-name="j" unicode="j" horiz-adv-x="1217" 
d="M1077 1211l-51 -942q-8 -127 -12 -227.5t-33 -165.5q-12 -33 -25.5 -60.5t-32 -50t-43 -42t-61.5 -35.5q-33 -13 -53.5 -22t-43 -14t-53 -7.5t-81.5 2.5q-113 6 -180.5 18t-111.5 33.5t-72.5 53.5t-61.5 75q-29 59 -34 119.5t11 142.5l209 -37q-2 -49 13.5 -81t34 -49
t32.5 -24.5t12 -7.5q-8 0 4.5 -2t33 -5t43 -6t34.5 -3q76 -4 139.5 68.5t71.5 207.5l61 1078zM827 1607l244 -40v-236l-220 24z" />
    <glyph glyph-name="k" unicode="k" horiz-adv-x="1448" 
d="M416 1627l36 -810l285 489l255 14l-328 -627l655 -517l-342 -31l-488 351l14 -379l-259 -7l-76 1466z" />
    <glyph glyph-name="l" unicode="l" horiz-adv-x="890" 
d="M387 1603l75 -1236l245 -7l20 -238l-532 -40l-66 1508z" />
    <glyph glyph-name="m" unicode="m" horiz-adv-x="1589" 
d="M496 1247l328 -561l234 627l292 22l82 -1142l-291 -20l-39 557l-270 -497l-336 445l-7 -567l-251 -12l-70 1185z" />
    <glyph glyph-name="n" unicode="n" 
d="M502 1282l286 -564l64 572l359 16l-150 -1246l-240 47l-367 458l-40 -450l-299 29l88 1146z" />
    <glyph glyph-name="o" unicode="o" horiz-adv-x="1419" 
d="M325 1181q124 77 212.5 98.5t191 22.5t272.5 -44q120 -86 172 -163t89 -245q0 -193 -18.5 -332.5t-82 -229.5t-182.5 -131t-277 -51q-157 0 -242 40t-143.5 117t-94.5 183.5t-39 223.5t5.5 190t17 111.5t59.5 132.5zM426 716q14 -43 28.5 -99t38 -107.5t61.5 -87
t97 -35.5q72 0 147 3t118 46q51 43 68 81.5t30 72.5t13 107t-17 176q-34 60 -64 89.5t-68.5 42.5t-141.5 13q-103 9 -167 -25.5t-115 -94.5z" />
    <glyph glyph-name="p" unicode="p" horiz-adv-x="1282" 
d="M709 1274q167 -40 234.5 -99.5t87.5 -135t28 -162.5t6 -183q-4 -86 -13 -191t-64.5 -192.5t-127.5 -119.5t-231 -48h-199l-24 -533l-247 24l40 1648zM629 398q120 32 151.5 84t39.5 99.5t16 107.5t0 107q-40 96 -67.5 120t-78.5 31t-115 9l-113 -8l-24 -542z" />
    <glyph glyph-name="q" unicode="q" horiz-adv-x="1282" 
d="M1036 1354l31 -1720l-247 -24l-24 533h-199q-159 16 -231 48t-127.5 119.5t-70.5 190.5t-35 179q-6 96 0.5 186t24 165t89 167t262.5 137zM788 406l-25 649l-146 -12q-83 0 -141.5 -39t-67 -79.5t-18.5 -128.5q-8 -47 0 -107t16 -107.5t39.5 -99.5t151.5 -84z" />
    <glyph glyph-name="r" unicode="r" horiz-adv-x="1411" 
d="M232 1387l575 -31q52 -4 82.5 -8t52 -10t40 -15.5t45.5 -19.5q112 -45 170 -145q14 -25 24 -67t14.5 -88t5.5 -92t-1 -81q-11 -121 -67 -206t-153 -134q-28 -14 -83.5 -18.5t-106.5 -12.5q6 -10 27.5 -44t297.5 -375l-342 28q-151 211 -196 264t-59.5 78t-22.5 33
q-12 8 -17.5 13t-9.5 6t-12 2t-22 1l-41 4l-29 -388l-271 21zM654 773q8 0 31.5 -1.5t52.5 -1.5q28 0 60 1.5t54 5.5q46 4 80.5 39.5t38.5 85.5q2 20 3 36.5t-3 34t-14 37t-33 43.5q-16 19 -41.5 30t-55.5 17t-59.5 9t-54.5 6l-223 14l-29 -344z" />
    <glyph glyph-name="s" unicode="s" horiz-adv-x="1318" 
d="M389 364q5 -19 10.5 -30.5t12 -22t15 -16.5t19.5 -18q18 -17 40.5 -22.5t48.5 -8t57.5 0.5t65.5 2q54 1 98 17.5t78.5 40t53.5 49.5t20 50q0 11 1 28t0.5 34.5t-6 33.5t-18.5 25t-31 22t-45 25.5t-67 22t-100 15.5q-87 1 -142 8.5t-92.5 19t-66 25.5t-62.5 38
q-67 41 -95.5 108.5t-27.5 134.5q6 64 17.5 127.5t58.5 112.5t142 90.5t278 41.5q184 0 268.5 -20.5t128.5 -54.5t77 -94.5t41 -221.5l-250 -15q-8 128 -50.5 163t-75 46.5t-59 15t-30.5 4.5q-43 8 -83 5.5t-74.5 -12.5t-59.5 -25.5t-40 -30.5q-18 -21 -25 -45t-9.5 -46
t-0.5 -41t7 -27q7 -27 31.5 -47t55 -36.5t65 -26.5t68.5 -14q79 -11 125.5 -16.5t78 -11.5t54 -11.5t58.5 -19.5q135 -45 201 -118q63 -74 60 -167q-2 -109 -87.5 -202t-240.5 -144q-36 -13 -53.5 -18t-33 -7.5t-41.5 -1.5q-27 -2 -85 -3q-100 -2 -166.5 -0.5t-114 9.5
t-82.5 24t-76 42q-40 28 -61 46.5t-31.5 39t-14 48t-6.5 69.5z" />
    <glyph glyph-name="t" unicode="t" horiz-adv-x="1195" 
d="M882 854l17 -205l-235 -36l7 -139l15 -102l44 -44l55 -9l97 34l85 51l97 -165l-80 -57l-85 -45l-148 -46l-131 -6l-108 46l-74 80l-39 147l-23 222l-245 -28l-23 199l262 34l-62 808l297 5l37 -774z" />
    <glyph glyph-name="u" unicode="u" horiz-adv-x="1395" 
d="M1195 1380l38 -630q4 -66 4 -133q0 -66 -9 -130.5t-30.5 -123t-62.5 -105.5q-21 -22 -34.5 -35.5t-26.5 -23.5t-28.5 -17.5t-37.5 -17.5q-33 -12 -47.5 -18t-28.5 -10.5t-38 -9.5t-73 -17q-26 -6 -46.5 -11.5t-40 -7.5t-43 -3t-54.5 1q-64 4 -102.5 11.5t-81.5 27.5
q-43 19 -73 37.5t-51.5 41t-37 52t-31.5 72.5q-12 33 -22.5 83t-17.5 102.5t-12 98.5t-7 72l-40 568l287 36l44 -698q8 -123 56 -182t167 -51q116 6 178.5 76.5t54.5 193.5l-52 691z" />
    <glyph glyph-name="v" unicode="v" horiz-adv-x="1276" 
d="M407 1341l197 -604l273 598l293 -7l-554 -1230l-133 10l-337 1188z" />
    <glyph glyph-name="w" unicode="w" horiz-adv-x="1581" 
d="M394 1303l146 -566l159 534h178l64 -553l203 566h299l-446 -1204l-127 9l-145 445l-209 -425l-151 10l-219 1191z" />
    <glyph glyph-name="x" unicode="x" horiz-adv-x="1497" 
d="M605 1274l199 -390l215 374l335 8l-359 -621l342 -576h-313l-244 361l-288 -353l-349 20l470 556l-334 605z" />
    <glyph glyph-name="y" unicode="y" horiz-adv-x="1493" 
d="M432 1278l388 -665l303 669l263 -71l-406 -861l-494 -812l-191 183l366 613l-530 948z" />
    <glyph glyph-name="z" unicode="z" horiz-adv-x="1406" 
d="M1135 1332v-245l-560 -709l648 91l13 -258l-1043 -118l-23 234l586 760l-573 -34l-13 238z" />
    <glyph glyph-name="braceleft" unicode="{" horiz-adv-x="797" 
d="M774 1491v-328h-45q-63 0 -94.5 -26.5t-44.5 -81.5q-7 -30 -8 -164.5t-28 -211.5q-20 -59 -57 -95q-28 -27 -92 -55q67 -31 99.5 -64.5t55.5 -102t23 -218.5q0 -135 14 -176t46.5 -58t130.5 -17v-324h-126q-195 0 -277 42.5t-117 124t-35 244.5q0 36 2 72q1 22 1 45
q0 116 -21 165t-60.5 71t-114.5 24v343q77 0 115.5 24t58.5 73.5t20 167.5v34q-1 23 -1 46q0 177 29.5 256t81.5 121q39 32 106 48q89 21 203 21h135z" />
    <glyph glyph-name="bar" unicode="|" horiz-adv-x="569" 
d="M160 1466h255v-1870h-255v1870z" />
    <glyph glyph-name="braceright" unicode="}" horiz-adv-x="797" 
d="M23.2363 1491v-328h44.9863q62.9805 0 94.4707 -26.5t44.4863 -81.5q6.99805 -30 7.99805 -164.5t27.9912 -211.5q19.9941 -59 56.9824 -95q27.9922 -27 91.9727 -55q-66.9795 -31 -99.4697 -64.5t-55.4834 -102t-22.9932 -218.5q0 -135 -13.9951 -176
q-13.9961 -41 -46.4863 -58t-130.46 -17v-324h125.961q194.941 0 276.916 42.5t116.964 124t34.9893 244.5q0 36 -1.99902 72q-1 22 -1 45q0 116 20.9941 165q20.9932 49 60.4814 71t114.465 24v343q-76.9766 0 -115.465 24t-58.4824 73.5q-19.9932 49.5 -19.9932 167.5v34
q0.999023 23 0.999023 46q0 177 -29.4902 256q-29.4912 79 -81.4756 121q-38.9883 32 -105.968 48q-88.9727 21 -202.938 21h-134.959z" />
    <glyph glyph-name="Agrave" unicode="&#xc0;" horiz-adv-x="1411" 
d="M434 205l-69 -156l-299 17l636 1544l236 -4l371 -1590l-322 13l-33 145zM780 1110l-252 -647l387 -25z" />
    <glyph glyph-name="Aacute" unicode="&#xc1;" horiz-adv-x="1346" 
d="M963 1589q7 -213 8.5 -230.5t-287 5.5t-349 17t-67.5 16q10 -64 36 -310q10 -113 10 -138q155 -14 243.5 -19t208.5 -18q137 -18 232 -88q69 -37 117.5 -146t56.5 -251q8 -117 -40.5 -205.5t-138.5 -140.5q-15 -11 -19.5 -16.5t-8.5 -11t-14.5 -10.5t-39.5 -6
q-154 -20 -203 -18l-569 3l-89 1604zM681 260q57 -1 103 16.5t77 48t44 65.5t12 72q-1 31 -11 74t-34.5 72t-75.5 54t-144 41l-304 25l36 -471z" />
    <glyph glyph-name="Acircumflex" unicode="&#xc2;" horiz-adv-x="1346" 
d="M756 1632q53 0 92 -6t69.5 -19.5t57 -33t55.5 -45.5q57 -51 90 -114.5t35 -141.5q0 -33 3 -78t2 -91t-7 -88t-23 -67q-10 -16 -13 -20t-9 -9.5t-20.5 -20.5t-47.5 -52q68 -35 112 -142.5t48 -248.5q4 -117 -47 -208t-143 -147q-15 -10 -19 -16t-8 -11t-15.5 -10.5
t-39.5 -9.5q-154 -24 -203 -24l-565 -17l-35 1602zM698 969q74 2 112 25.5t53.5 60.5t15.5 82v94q-2 65 -44 111.5t-145 43.5l-297 -8l13 -417zM707 268q57 2 103 21.5t77 50.5t46 66.5t15 72.5q0 31 -19.5 68t-53 67.5t-82 51t-107.5 18.5l-278 -16l4 -412z" />
    <glyph glyph-name="Atilde" unicode="&#xc3;" horiz-adv-x="1341" 
d="M125 17l70 1571l1030 -47l-17 -277l-706 33l-117 -1284z" />
    <glyph glyph-name="Adieresis" unicode="&#xc4;" horiz-adv-x="1317" 
d="M1097 1702l18 -1374h189l-82 -448l-107 284l-353 -6q-75 0 -106.5 -4t-79 -4t-82.5 4t-122 -2q-161 3 -162.5 -1.5t-140.5 -270.5q-56 404 -64.5 428.5t181.5 6.5q1 45 6 99q-12 90 -17.5 147.5t-7.5 102.5t-1 87t1 101v170t9.5 186.5t30 174.5t59.5 131q40 51 81 87
t95.5 58.5t126 32.5t170.5 10h358zM857 1397q-24 2 -65 3t-85 -2t-83 -14.5t-57 -31.5q-19 -23 -33.5 -46.5t-26.5 -62.5t-22.5 -99t-20.5 -157q-4 -41 -4 -98t3 -98t3 -91.5v-119.5q-7 -63 -9.5 -126t47.5 -53.5t85 9.5t63.5 -3.5t53.5 -3.5h59.5t44 3.5t34.5 -3.5z" />
    <glyph glyph-name="Aring" unicode="&#xc5;" horiz-adv-x="1288" 
d="M1075 1622l-8 -236l-629 -4l41 -503l508 41l17 -248l-504 4l35 -486l581 19l8 -164l-925 -20l-31 1568z" />
    <glyph glyph-name="AE" unicode="&#xc6;" horiz-adv-x="2007" 
d="M991 1587l27 -555l448 578l299 12l-553 -776l666 -772l-342 -31l-467 506l16 -529l-282 -12l-31 526l-406 -507l-333 6l552 779l-618 731l299 7l477 -536l-34 559z" />
    <glyph glyph-name="Ccedilla" unicode="&#xc7;" 
d="M110 1152q-229 355 287 384l131 -8q189 -25 226.5 -78t54.5 -74t20 -50t10 -100q26 -43 -28 -152t-29 -65q-24 -51 14 -75.5t80 -42t53.5 -24t5.5 -13.5q54 -36 65 -53.5t29 -72.5t28 -114.5t16 -110.5q7 -65 4 -127t-21 -117t-54 -101.5t-96 -78.5q-30 -16 -94 -25
t-138 -15t-149 -7q-74 -2 -126 -4q-90 -2 -148 2.5t-92 18.5t-53 38t-31 61t-22.5 88t-31.5 120l189 5q1 -70 19.5 -105.5t65.5 -49t129 -9.5t212 13q41 2 63.5 24.5t43.5 56.5t27.5 74t9.5 82q2 49 -11 107q-29 86 -54 114.5t-41.5 53.5t-68.5 38l-238 -12l-27 201
q206 32 215 54t35 44.5t34.5 82.5t14 76t-2 58.5t-69.5 84.5q-58 7 -160 5q-188 9 -107 -147q46 -24 -190 -55z" />
    <glyph glyph-name="Egrave" unicode="&#xc8;" 
d="M1062 1642l131 -1552l-299 -29l-65 709l-342 -717l-240 -47l-133 1553l305 26l68 -702l297 729z" />
    <glyph glyph-name="Eacute" unicode="&#xc9;" horiz-adv-x="1383" 
d="M1201 1547l-21 -1542l-302 3l1 716l-409 -681l-244 -21l-89 1498h318l64 -737l446 764h236zM447 1708l225 36l80 -180l-20 -131z" />
    <glyph glyph-name="Ecircumflex" unicode="&#xca;" horiz-adv-x="1448" 
d="M432 1587l27 -555l448 578l299 12l-553 -776l666 -772l-342 -31l-467 506l16 -529l-282 -12l-94 1565z" />
    <glyph glyph-name="Edieresis" unicode="&#xcb;" horiz-adv-x="1276" 
d="M39 40l592 1573h77l305 -1579l-295 1l-130 760l-279 -756z" />
    <glyph glyph-name="Igrave.001" unicode="&#xcc;" horiz-adv-x="1589" 
d="M387 1561l387 -752l301 803l254 22l103 -1499l-291 -20l-45 694l-277 -678l-360 662l30 -740l-251 -12l-103 1503z" />
    <glyph glyph-name="Iacute" unicode="&#xcd;" horiz-adv-x="1468" 
d="M436 1593l53 -643l433 37l-17 627l320 16l82 -1569l-320 -16l-37 655l-446 -30l14 -647l-287 -3l-81 1569z" />
    <glyph glyph-name="Icircumflex.001" unicode="&#xce;" horiz-adv-x="1419" 
d="M240 1382q14 37 45.5 78t83 75t120 56.5t158.5 22.5q197 0 316.5 -36t186.5 -131t89.5 -264t22.5 -435q0 -193 -18.5 -332.5t-82 -229.5t-182.5 -131t-320 -35q-114 -16 -199 24t-143.5 117t-94.5 183.5t-52 225t-17 240.5t10 231.5t31.5 196.5t45.5 136v8zM426 614
q14 -43 28.5 -99t38 -107.5t61.5 -87t97 -35.5q72 0 141.5 17t110.5 65q21 24 34 64t22.5 90t13.5 109.5t4 121.5q0 213 -18.5 328.5t-58.5 169t-100.5 62.5t-144.5 9q-137 0 -190 -105.5t-53 -332.5z" />
    <glyph glyph-name="Idieresis" unicode="&#xcf;" 
d="M524 1612l364 -24l1 -3l305 -26l-133 -1553l-273 38l107 1273l-366 38l-115 -1294l-299 29l131 1552z" />
    <glyph glyph-name="Idieresis" unicode="&#x41f;" 
d="M524 1612l364 -24l1 -3l305 -26l-133 -1553l-273 38l107 1273l-366 38l-115 -1294l-299 29l131 1552z" />
    <glyph glyph-name="Eth" unicode="&#xd0;" horiz-adv-x="1217" 
d="M705 1595q102 -2 171.5 -45t112.5 -111.5t60.5 -158.5t15.5 -186q-4 -86 -34 -161t-87 -131.5t-141 -89t-193 -34.5l-186 -2l-21 -660h-239l29 1590zM559 946q64 -2 108 11.5t70.5 38t37.5 57t13 67.5q0 33 -9 74t-32.5 76t-65.5 59.5t-106 26.5l-88 2l-2 -410z" />
    <glyph glyph-name="Ntilde" unicode="&#xd1;" horiz-adv-x="1325" 
d="M1176 467q2 -133 -26 -219t-90.5 -136.5t-162.5 -72t-248 -23.5q-55 0 -118.5 8.5t-124 28t-112.5 53t-85 84.5q-29 43 -44 125t-22.5 176.5t-7.5 188.5v162q2 170 8.5 306t49.5 232.5t139 150.5t276 58q150 4 252.5 -4t164.5 -47t93 -118t41 -216l-258 -6q-6 16 -7 27.5
t-4 21.5t-8 22.5t-20 30.5q-16 23 -41.5 35.5t-93.5 12.5q-49 0 -86 -3.5t-65.5 -11.5t-52 -21.5t-44.5 -33.5q-39 -41 -55 -116t-20.5 -161t-1 -168.5t3.5 -140.5q0 -61 2 -117.5t8 -103.5t19.5 -82t37.5 -51q19 -12 33 -18.5t30.5 -8.5t38 0t56.5 2q63 0 109 -1t77 11.5
t51.5 45t34.5 100.5z" />
    <glyph glyph-name="Ntilde" unicode="&#x421;" horiz-adv-x="1325" 
d="M1176 467q2 -133 -26 -219t-90.5 -136.5t-162.5 -72t-248 -23.5q-55 0 -118.5 8.5t-124 28t-112.5 53t-85 84.5q-29 43 -44 125t-22.5 176.5t-7.5 188.5v162q2 170 8.5 306t49.5 232.5t139 150.5t276 58q150 4 252.5 -4t164.5 -47t93 -118t41 -216l-258 -6q-6 16 -7 27.5
t-4 21.5t-8 22.5t-20 30.5q-16 23 -41.5 35.5t-93.5 12.5q-49 0 -86 -3.5t-65.5 -11.5t-52 -21.5t-44.5 -33.5q-39 -41 -55 -116t-20.5 -161t-1 -168.5t3.5 -140.5q0 -61 2 -117.5t8 -103.5t19.5 -82t37.5 -51q19 -12 33 -18.5t30.5 -8.5t38 0t56.5 2q63 0 109 -1t77 11.5
t51.5 45t34.5 100.5z" />
    <glyph glyph-name="Ograve" unicode="&#xd2;" horiz-adv-x="1374" 
d="M1202 1626l10 -256l-397 -29l84 -1304l-244 -17l-120 1303l-379 -43l-13 258z" />
    <glyph glyph-name="Ograve" unicode="&#x422;" horiz-adv-x="1374" 
d="M1202 1626l10 -256l-397 -29l84 -1304l-244 -17l-120 1303l-379 -43l-13 258z" />
    <glyph glyph-name="Oacute" unicode="&#xd3;" horiz-adv-x="1493" 
d="M432 1573l313 -496l312 512l303 -8l-481 -784l-463 -747l-246 57l432 712l-471 758z" />
    <glyph glyph-name="Oacute" unicode="&#x423;" horiz-adv-x="1493" 
d="M432 1573l313 -496l312 512l303 -8l-481 -784l-463 -747l-246 57l432 712l-471 758z" />
    <glyph glyph-name="Ocircumflex" unicode="&#xd4;" horiz-adv-x="1942" 
d="M1564 1351q36 -14 74.5 -45.5t68.5 -83t47 -120t9 -158.5q-16 -197 -61.5 -316.5t-146 -186.5t-271 -89.5t-436.5 -22.5q-193 0 -331 18.5t-223 82t-116.5 182.5t-9.5 320q-6 114 40.5 199t128.5 143.5t191.5 94.5t229 52t241.5 17t231 -10t194 -31.5t132 -45.5h8z
M781 1165q-44 -14 -101 -28.5t-110.5 -38t-92 -61.5t-43.5 -97q-6 -72 5.5 -141.5t56.5 -110.5q22 -21 61 -34t88 -22.5t108.5 -13.5t121.5 -4q213 0 330 18.5t173.5 58.5t70.5 100.5t21 144.5q11 137 -90.5 190t-328.5 53zM813 1656l343 -27l-82 -1620l-300 18z" />
    <glyph glyph-name="Ocircumflex" unicode="&#x424;" horiz-adv-x="1942" 
d="M1564 1351q36 -14 74.5 -45.5t68.5 -83t47 -120t9 -158.5q-16 -197 -61.5 -316.5t-146 -186.5t-271 -89.5t-436.5 -22.5q-193 0 -331 18.5t-223 82t-116.5 182.5t-9.5 320q-6 114 40.5 199t128.5 143.5t191.5 94.5t229 52t241.5 17t231 -10t194 -31.5t132 -45.5h8z
M781 1165q-44 -14 -101 -28.5t-110.5 -38t-92 -61.5t-43.5 -97q-6 -72 5.5 -141.5t56.5 -110.5q22 -21 61 -34t88 -22.5t108.5 -13.5t121.5 -4q213 0 330 18.5t173.5 58.5t70.5 100.5t21 144.5q11 137 -90.5 190t-328.5 53zM813 1656l343 -27l-82 -1620l-300 18z" />
    <glyph glyph-name="Otilde" unicode="&#xd5;" horiz-adv-x="1497" 
d="M504 1581l268 -557l272 553h289l-372 -780l376 -768h-313l-252 495l-280 -487l-349 20l467 725l-432 807z" />
    <glyph glyph-name="Otilde" unicode="&#x425;" horiz-adv-x="1497" 
d="M504 1581l268 -557l272 553h289l-372 -780l376 -768h-313l-252 495l-280 -487l-349 20l467 725l-432 807z" />
    <glyph glyph-name="Odieresis" unicode="&#xd6;" horiz-adv-x="1605" 
d="M448 1626l90 -1284l425 34l-7 1287l271 19l24 -1275l300 30l-112 -548l-183 239l-1033 -90l-35 1573z" />
    <glyph glyph-name="Odieresis" unicode="&#x426;" horiz-adv-x="1605" 
d="M448 1626l90 -1284l425 34l-7 1287l271 19l24 -1275l300 30l-112 -548l-183 239l-1033 -90l-35 1573z" />
    <glyph glyph-name="multiply" unicode="&#xd7;" horiz-adv-x="1395" 
d="M1084 1593l23 -437q4 -66 90 -1093q-151 -7 -211 -32t-71 262t-33 277q-33 -12 -47.5 -18t-28.5 -10.5t-38 -9.5t-73 -17q-26 -6 -46.5 -11.5t-40 -7.5t-43 -3t-54.5 1q-64 4 -102.5 11.5t-81.5 27.5q-43 19 -73 37.5t-51.5 41t-37 52t-31.5 72.5q-12 33 -22.5 83
t-17.5 102.5t-12 98.5t-7 72l-25 382l277 25l39 -501q8 -123 56 -182t167 -51q116 6 178.5 76.5t54.5 193.5l-41 527z" />
    <glyph glyph-name="multiply" unicode="&#x427;" horiz-adv-x="1395" 
d="M1084 1593l23 -437q4 -66 90 -1093q-151 -7 -211 -32t-71 262t-33 277q-33 -12 -47.5 -18t-28.5 -10.5t-38 -9.5t-73 -17q-26 -6 -46.5 -11.5t-40 -7.5t-43 -3t-54.5 1q-64 4 -102.5 11.5t-81.5 27.5q-43 19 -73 37.5t-51.5 41t-37 52t-31.5 72.5q-12 33 -22.5 83
t-17.5 102.5t-12 98.5t-7 72l-25 382l277 25l39 -501q8 -123 56 -182t167 -51q116 6 178.5 76.5t54.5 193.5l-41 527z" />
    <glyph glyph-name="Oslash" unicode="&#xd8;" horiz-adv-x="1728" 
d="M576 1644l-56 -1356l209 1l89 1300l296 3l-81 -1290l182 10l96 1307l308 9l-99 -1297l-9 -279v0l-72 -1l-1199 -3l63 1590z" />
    <glyph glyph-name="Oslash" unicode="&#x428;" horiz-adv-x="1728" 
d="M576 1644l-56 -1356l209 1l89 1300l296 3l-81 -1290l182 10l96 1307l308 9l-99 -1297l-9 -279v0l-72 -1l-1199 -3l63 1590z" />
    <glyph glyph-name="Ugrave" unicode="&#xd9;" horiz-adv-x="1728" 
d="M315 1630l123 -1330l208 15l-85 1276l292 23l92 -1268l177 23l-77 1284l305 29l72 -1275l252 30l-112 -548l-183 239l-1187 -82l-146 1560z" />
    <glyph glyph-name="Ugrave" unicode="&#x429;" horiz-adv-x="1728" 
d="M315 1630l123 -1330l208 15l-85 1276l292 23l92 -1268l177 23l-77 1284l305 29l72 -1275l252 30l-112 -548l-183 239l-1187 -82l-146 1560z" />
    <glyph glyph-name="Uacute" unicode="&#xda;" horiz-adv-x="1217" 
d="M103 23l139 1387l-242 9v193l514 -4l-62 -662l186 -8q109 -5 188.5 -40.5t129 -93.5t69.5 -133.5t15 -162.5q-11 -96 -40 -185.5t-80 -157t-126.5 -108.5t-178.5 -40zM479 672l-50 -411l88 -1q64 1 109 24t73 57t42.5 75.5t18.5 74.5q2 36 -4.5 68t-30 57.5t-66 40.5
t-106.5 14z" />
    <glyph glyph-name="Uacute" unicode="&#x42a;" horiz-adv-x="1217" 
d="M103 23l139 1387l-242 9v193l514 -4l-62 -662l186 -8q109 -5 188.5 -40.5t129 -93.5t69.5 -133.5t15 -162.5q-11 -96 -40 -185.5t-80 -157t-126.5 -108.5t-178.5 -40zM479 672l-50 -411l88 -1q64 1 109 24t73 57t42.5 75.5t18.5 74.5q2 36 -4.5 68t-30 57.5t-66 40.5
t-106.5 14z" />
    <glyph glyph-name="Ucircumflex" unicode="&#xdb;" horiz-adv-x="1507" 
d="M90 44l38 1501l244 5l-8 -627h189q114 0 199 -28.5t141 -81.5t82.5 -123.5t24.5 -151.5q1 -90 -20 -176.5t-69.5 -152t-121.5 -107.5t-175 -44zM416 668l-15 -391l92 7q64 0 108 24.5t68 58t36.5 72t14.5 68.5q-4 33 -12.5 65.5t-34.5 53.5t-70.5 35t-108.5 9zM1384 1567
l-70 -1508l-281 -11l85 1521z" />
    <glyph glyph-name="Ucircumflex" unicode="&#x42b;" horiz-adv-x="1507" 
d="M90 44l38 1501l244 5l-8 -627h189q114 0 199 -28.5t141 -81.5t82.5 -123.5t24.5 -151.5q1 -90 -20 -176.5t-69.5 -152t-121.5 -107.5t-175 -44zM416 668l-15 -391l92 7q64 0 108 24.5t68 58t36.5 72t14.5 68.5q-4 33 -12.5 65.5t-34.5 53.5t-70.5 35t-108.5 9zM1384 1567
l-70 -1508l-281 -11l85 1521z" />
    <glyph glyph-name="Udieresis" unicode="&#xdc;" horiz-adv-x="1217" 
d="M193 16l-29 1590h239l21 -660l186 -2q109 -2 193 -34.5t141 -89t87 -131.5t34 -161q2 -96 -15.5 -186t-60.5 -158.5t-112.5 -111.5t-171.5 -45zM485 674l2 -410l88 2q64 2 106 26.5t65.5 59.5t32.5 76t9 74q-2 35 -13 67.5t-37.5 57t-70.5 38t-108 11.5z" />
    <glyph glyph-name="Udieresis" unicode="&#x42c;" horiz-adv-x="1217" 
d="M193 16l-29 1590h239l21 -660l186 -2q109 -2 193 -34.5t141 -89t87 -131.5t34 -161q2 -96 -15.5 -186t-60.5 -158.5t-112.5 -111.5t-171.5 -45zM485 674l2 -410l88 2q64 2 106 26.5t65.5 59.5t32.5 76t9 74q-2 35 -13 67.5t-37.5 57t-70.5 38t-108 11.5z" />
    <glyph glyph-name="Yacute" unicode="&#xdd;" horiz-adv-x="1325" 
d="M394 471q13 -66 33 -96.5t50.5 -40t76.5 -3.5t109 12q35 4 56.5 4t38 4t31 11.5t32.5 21.5q26 19 39.5 55t20.5 83.5t9.5 104t-0.5 144.5l-337 -43l-6 198q301 13 344 26q2 116 -10 224t-49 145q-21 18 -44.5 29t-51.5 16t-65.5 4.5t-86.5 -5.5q-68 -7 -93.5 -22
t-42.5 -39q-15 -20 -20 -33t-8.5 -23t-4 -21.5t-8.5 -28.5l-256 -20q12 137 43.5 219t94.5 127.5t166 64t251 29.5q181 14 276 -30t136.5 -135.5t46 -226.5t3.5 -304q0 -68 -3 -162q-1 -94 -10 -189t-25 -178t-46 -129q-34 -54 -86.5 -93t-113.5 -64.5t-124.5 -40.5
t-118.5 -21q-148 -13 -248 -2t-161.5 55t-88 127t-22.5 216z" />
    <glyph glyph-name="Yacute" unicode="&#x42d;" horiz-adv-x="1325" 
d="M394 471q13 -66 33 -96.5t50.5 -40t76.5 -3.5t109 12q35 4 56.5 4t38 4t31 11.5t32.5 21.5q26 19 39.5 55t20.5 83.5t9.5 104t-0.5 144.5l-337 -43l-6 198q301 13 344 26q2 116 -10 224t-49 145q-21 18 -44.5 29t-51.5 16t-65.5 4.5t-86.5 -5.5q-68 -7 -93.5 -22
t-42.5 -39q-15 -20 -20 -33t-8.5 -23t-4 -21.5t-8.5 -28.5l-256 -20q12 137 43.5 219t94.5 127.5t166 64t251 29.5q181 14 276 -30t136.5 -135.5t46 -226.5t3.5 -304q0 -68 -3 -162q-1 -94 -10 -189t-25 -178t-46 -129q-34 -54 -86.5 -93t-113.5 -64.5t-124.5 -40.5
t-118.5 -21q-148 -13 -248 -2t-161.5 55t-88 127t-22.5 216z" />
    <glyph glyph-name="Thorn" unicode="&#xde;" horiz-adv-x="1701" 
d="M643 1371q14 37 45.5 78t83 75t120 56.5t158.5 22.5q197 0 316.5 -36t186.5 -131t89.5 -264t22.5 -435q0 -193 -18.5 -332.5t-82 -229.5t-182.5 -131t-320 -35q-114 -16 -199 24t-143.5 117t-94.5 183.5t-52 225t-17 240.5t10 231.5t31.5 196.5t45.5 136v8zM829 603
q14 -43 28.5 -99t38 -107.5t61.5 -87t97 -35.5q72 0 141.5 17t110.5 65q21 24 34 64t22.5 90t13.5 109.5t4 121.5q0 213 -18.5 328.5t-58.5 169t-100.5 62.5t-144.5 9q-137 0 -190 -105.5t-53 -332.5zM100 1575l273 18l82 -1547l-309 -10zM391 956h173v-292h-173v292z" />
    <glyph glyph-name="Thorn" unicode="&#x42e;" horiz-adv-x="1701" 
d="M643 1371q14 37 45.5 78t83 75t120 56.5t158.5 22.5q197 0 316.5 -36t186.5 -131t89.5 -264t22.5 -435q0 -193 -18.5 -332.5t-82 -229.5t-182.5 -131t-320 -35q-114 -16 -199 24t-143.5 117t-94.5 183.5t-52 225t-17 240.5t10 231.5t31.5 196.5t45.5 136v8zM829 603
q14 -43 28.5 -99t38 -107.5t61.5 -87t97 -35.5q72 0 141.5 17t110.5 65q21 24 34 64t22.5 90t13.5 109.5t4 121.5q0 213 -18.5 328.5t-58.5 169t-100.5 62.5t-144.5 9q-137 0 -190 -105.5t-53 -332.5zM100 1575l273 18l82 -1547l-309 -10zM391 956h173v-292h-173v292z" />
    <glyph glyph-name="germandbls" unicode="&#xdf;" horiz-adv-x="1411" 
d="M1261 111l-260 -25l-58 614l-41 -4q-14 0 -22 -1t-12 -2t-9.5 -6t-17.5 -13q-8 -8 -22.5 -33t-32 -56.5t-33.5 -63.5t-29 -52l-276 -446l-309 -21q114 203 190 331t122 203.5t67.5 109.5t27.5 44q-51 8 -106.5 12.5t-83.5 18.5q-97 49 -153 134t-67 206q-2 35 -1 81
t5.5 92t14.5 88t24 67q58 100 170 145q27 10 45.5 19.5t40 15.5t52 10t82.5 8l575 31zM915 1016l-29 344l-223 -14q-25 -3 -54.5 -6t-59.5 -9t-55.5 -17t-41.5 -30q-23 -24 -33 -43.5t-14 -37t-3 -34t3 -36.5q4 -50 38.5 -85.5t80.5 -39.5q22 -4 54 -5.5t60 -1.5
q29 0 52.5 1.5t31.5 1.5z" />
    <glyph glyph-name="germandbls" unicode="&#x42f;" horiz-adv-x="1411" 
d="M1261 111l-260 -25l-58 614l-41 -4q-14 0 -22 -1t-12 -2t-9.5 -6t-17.5 -13q-8 -8 -22.5 -33t-32 -56.5t-33.5 -63.5t-29 -52l-276 -446l-309 -21q114 203 190 331t122 203.5t67.5 109.5t27.5 44q-51 8 -106.5 12.5t-83.5 18.5q-97 49 -153 134t-67 206q-2 35 -1 81
t5.5 92t14.5 88t24 67q58 100 170 145q27 10 45.5 19.5t40 15.5t52 10t82.5 8l575 31zM915 1016l-29 344l-223 -14q-25 -3 -54.5 -6t-59.5 -9t-55.5 -17t-41.5 -30q-23 -24 -33 -43.5t-14 -37t-3 -34t3 -36.5q4 -50 38.5 -85.5t80.5 -39.5q22 -4 54 -5.5t60 -1.5
q29 0 52.5 1.5t31.5 1.5z" />
    <glyph glyph-name="agrave" unicode="&#xe0;" horiz-adv-x="1373" 
d="M408 247l-69 -156l-285 -1l619 1194h217l393 -1226l-322 13l-33 145zM754 951l-252 -446l387 -25z" />
    <glyph glyph-name="aacute" unicode="&#xe1;" horiz-adv-x="1346" 
d="M1029 1291l-81 -168l-620 -7l8 -233q167 0 258.5 3.5t215.5 -11.5q90 -24 183 -51q72 -58 112 -123.5t40 -189.5q8 -132 -32.5 -215.5t-119.5 -141.5q-15 -11 -19.5 -16.5t-8.5 -11t-10.5 -0.5t-43.5 -16q-154 -20 -203 -18l-569 3v1167zM681 333q57 -1 103 16.5t77 48
t44 65.5t12 72q-1 31 -14 65.5t-31 60t-58.5 36.5t-156.5 11l-300 -8l27 -370z" />
    <glyph glyph-name="acircumflex" unicode="&#xe2;" horiz-adv-x="1346" 
d="M562 1342q202 -7 257.5 -18t82 -25.5t54.5 -51.5q39 -58 54 -131q19 -109 -47 -219q139 -43 168 -112.5t51 -215.5q22 -114 -29 -205t-143 -147q-15 -10 -19 -16t-8 -11t-15.5 -10.5t-39.5 -9.5q-154 -24 -203 -24l-565 -17l-29 1148zM693 875q109 51 131 95t18.5 77
t-25.5 76q-29 37 -69.5 40.5t-156.5 -10.5l-212 -44l-7 -255zM707 385q57 2 103 21.5t77 50.5t46 66.5t15 72.5q0 31 -21.5 56.5t-47 44t-58.5 29.5t-143 4l-284 -44l18 -313z" />
    <glyph glyph-name="atilde" unicode="&#xe3;" horiz-adv-x="1341" 
d="M125 148l65 1136l985 15l-59 -183l-656 -22l-75 -950z" />
    <glyph glyph-name="adieresis" unicode="&#xe4;" horiz-adv-x="1317" 
d="M1094 1284l8 -1036l182 -36l-62 -339l-106 237q-912 14 -915.5 -7.5t-131.5 -229.5l-33 339l156 29v166l-10 425l8 146q14 109 36 156.5t73 98.5t116.5 62t131.5 11h219zM875 1087q-102 22 -164 22h-80t-69 -7q-51 -37 -84 -80.5t-55 -211.5v-430t117 -102.5t357 21.5z
" />
    <glyph glyph-name="aring" unicode="&#xe5;" horiz-adv-x="1288" 
d="M1058 1277l-22 -204l-576 -15l-8 -306l467 -37l7 -175l-445 8l44 -241l562 7l37 -188l-925 -20l-24 1157z" />
    <glyph glyph-name="ae" unicode="&#xe6;" horiz-adv-x="2007" 
d="M1029 1641v-773l342 445l278 -58l-438 -569l620 -482l-295 -73l-478 365v-394l-255 -6l-15 371l-358 -350l-262 36l481 525l-561 497l255 102l430 -387l-22 744z" />
    <glyph glyph-name="ccedilla" unicode="&#xe7;" 
d="M182 1051q-7 182 269 269h125q146 -58 164.5 -72.5t29.5 -29t32 -65.5q8 -44 8 -124q7 -59 -88 -168q102 22 219 -95q80 -88 102 -204q22 -95 15 -146t-22 -87.5t-42.5 -79.5t-87.5 -75q-30 -16 -94 -25t-138 -15t-149 -7q-74 -2 -126 -4q-90 -2 -139 7t-67 12.5t-47 29
t-56 67t-37.5 92.5t-16.5 19l212 15q-15 0 39.5 -38.5t136.5 -34.5t212 13q146 23 145.5 114.5t-22.5 193.5q-37 36 -66 54.5t-175 18.5l-153 -29v189q160 37 218.5 69.5t73 76.5t11 84t-54.5 91q-73 37 -139 0q-58 -22 -124 -153z" />
    <glyph glyph-name="egrave" unicode="&#xe8;" 
d="M1116 1306l51 -1116l-273 -27l-40 494l-367 -502l-240 -47l-87 1176l314 -29l22 -620l379 656z" />
    <glyph glyph-name="eacute" unicode="&#xe9;" horiz-adv-x="1383" 
d="M1204 1262l-24 -1162l-283 38l-22 467l-405 -467l-244 -21l-36 1101l257 73l86 -656l437 649zM511 1466l204 95l51 -160l-66 -175z" />
    <glyph glyph-name="ecircumflex" unicode="&#xea;" horiz-adv-x="1448" 
d="M416 1627l36 -810l285 489l255 14l-328 -627l655 -517l-342 -31l-488 351l14 -379l-259 -7l-76 1466z" />
    <glyph glyph-name="edieresis" unicode="&#xeb;" horiz-adv-x="1339" 
d="M197 98l523 1186l80 -7l371 -1185l-295 1l-156 483l-253 -479z" />
    <glyph glyph-name="igrave" unicode="&#xec;" horiz-adv-x="1589" 
d="M496 1247l328 -561l234 627l292 22l82 -1142l-291 -20l-39 557l-270 -497l-336 445l-7 -567l-251 -12l-70 1185z" />
    <glyph glyph-name="iacute" unicode="&#xed;" horiz-adv-x="1468" 
d="M474 1299l15 -460l452 -7l-29 474l335 29l60 -1194l-320 -16l-31 473l-453 15l15 -510l-287 -3l-49 1184z" />
    <glyph glyph-name="icircumflex" unicode="&#xee;" horiz-adv-x="1419" 
d="M325 1181q124 77 212.5 98.5t191 22.5t272.5 -44q120 -86 172 -163t89 -245q0 -193 -18.5 -332.5t-82 -229.5t-182.5 -131t-277 -51q-157 0 -242 40t-143.5 117t-94.5 183.5t-39 223.5t5.5 190t17 111.5t59.5 132.5zM426 716q14 -43 28.5 -99t38 -107.5t61.5 -87
t97 -35.5q72 0 147 3t118 46q51 43 68 81.5t30 72.5t13 107t-17 176q-34 60 -64 89.5t-68.5 42.5t-141.5 13q-103 9 -167 -25.5t-115 -94.5z" />
    <glyph glyph-name="idieresis" unicode="&#xef;" 
d="M556 1344l248 -9l180 -17h146l-69 -1201l-273 38l42 898l-317 25l-99 -906l-283 16l74 1173z" />
    <glyph glyph-name="eth" unicode="&#xf0;" horiz-adv-x="1282" 
d="M709 1274q167 -40 234.5 -99.5t87.5 -135t28 -162.5t6 -183q-4 -86 -13 -191t-64.5 -192.5t-127.5 -119.5t-231 -48h-199l-24 -533l-247 24l40 1648zM629 398q120 32 151.5 84t39.5 99.5t16 107.5t0 107q-40 96 -67.5 120t-78.5 31t-115 9l-113 -8l-24 -542z" />
    <glyph glyph-name="ntilde" unicode="&#xf1;" horiz-adv-x="1325" 
d="M1176 554q2 -133 -26 -219t-90.5 -136.5t-162.5 -72t-248 -23.5q-55 0 -118.5 8.5t-124 28t-112.5 53t-85 84.5q-29 43 -44 125t-22.5 176.5t-7.5 188.5t8 149q48 127 84 175t87.5 83.5t99.5 55.5t217 52q165 0 225 -16t119.5 -44t107.5 -95.5t56 -226.5l-215 -8l-35 71
q-61 64 -132 80q-112 8 -158 -8t-79.5 -40t-61.5 -71.5t-32 -67.5t-20 -77q0 -61 2 -117.5t8 -103.5t19.5 -82t37.5 -51q19 -12 33 -18.5t30.5 -8.5t38 0t56.5 2q63 0 109 -1t77 11.5t51.5 45t34.5 100.5z" />
    <glyph glyph-name="ograve" unicode="&#xf2;" horiz-adv-x="1374" 
d="M1226 1346l-15 -215l-367 -48l55 -958l-244 -17l-58 967l-366 -16l-32 239z" />
    <glyph glyph-name="oacute" unicode="&#xf3;" horiz-adv-x="1493" 
d="M432 1278l388 -665l303 669l263 -71l-406 -861l-494 -812l-191 183l366 613l-530 948z" />
    <glyph glyph-name="ocircumflex" unicode="&#xf4;" horiz-adv-x="1942" 
d="M1617 1190q8 0 34 -32t56 -83.5t47 -120t9 -158.5q-16 -197 -61.5 -316.5t-146 -186.5t-271 -89.5t-436.5 -22.5q-193 0 -331 18.5t-223 82t-116.5 182.5t-9.5 320q-6 114 40.5 199t126 170t195 120.5t235 47.5t239 16t239 -16t203 -39.5t155.5 -67.5zM788 1078
q-94 -32 -143 -55.5t-89 -59.5t-67 -64t-55 -107q-6 -72 5.5 -141.5t56.5 -110.5q22 -21 61 -34t88 -22.5t108.5 -13.5t121.5 -4q213 0 330 18.5t173.5 58.5t70.5 100.5t21 144.5q11 137 -76.5 205.5t-350.5 92.5zM836 1421l319 8l-128 -1840l-262 -16z" />
    <glyph glyph-name="otilde" unicode="&#xf5;" horiz-adv-x="1497" 
d="M605 1274l199 -390l215 374l335 8l-359 -621l342 -576h-313l-244 361l-288 -353l-349 20l470 556l-334 605z" />
    <glyph glyph-name="odieresis" unicode="&#xf6;" horiz-adv-x="1605" 
d="M494 1274l79 -860l390 -38l1 914l270 8l16 -940l239 8l-119 -509l-114 271l-953 23l-120 1107z" />
    <glyph glyph-name="divide" unicode="&#xf7;" horiz-adv-x="1459" 
d="M1163 1314l8 -270q4 -66 47 -956l-250 8q0 372 -22 362q-33 -12 -47.5 -18t-28.5 -10.5t-38 -9.5t-73 -17q-26 -6 -46.5 -11.5t-40 -7.5t-43 -3t-54.5 1q-64 4 -102.5 11.5t-81.5 27.5q-43 19 -73 37.5t-51.5 41t-37 52t-31.5 72.5q-12 33 -22.5 83t-17.5 102.5t-12 98.5
t-7 72l-19 286l278 8l32 -388q8 -123 56 -182t167 -51q116 6 178.5 76.5t54.5 193.5l-30 391h307z" />
    <glyph glyph-name="glyph165" unicode="&#xf8;" horiz-adv-x="1728" 
d="M557 1314l-37 -938l209 1l59 794l279 -16l-24 -773l207 16l32 916l303 -24l-65 -871l-9 -279l-72 -1l-1199 -3l39 1170z" />
    <glyph glyph-name="oslash" unicode="&#xf9;" horiz-adv-x="1728" 
d="M366 1314l72 -934l208 15l-57 839l303 -16l53 -792l218 28l-88 868l304 40l43 -875l195 -33l-168 -526l-70 280l-1187 -82l-104 1180z" />
    <glyph glyph-name="uacute" unicode="&#xfa;" horiz-adv-x="1251" 
d="M137 98l87 996l-136 7l-27 203l452 28l-27 -311l186 -8q109 -5 188.5 -40.5t129 -93.5t69.5 -133.5t15 -162.5q-11 -96 -40 -185.5t-80 -157t-126.5 -108.5t-178.5 -40zM513 747l-50 -411l88 -1q64 1 109 24t73 57t42.5 75.5t18.5 74.5q2 36 -4.5 68t-30 57.5t-66 40.5
t-106.5 14z" />
    <glyph glyph-name="ucircumflex" unicode="&#xfb;" horiz-adv-x="1507" 
d="M90 92l59 1240l245 6l-30 -367h189q114 0 199 -28.5t141 -81.5t82.5 -123.5t24.5 -151.5q1 -90 -20 -176.5t-69.5 -152t-121.5 -107.5t-175 -44zM416 716l-15 -391l92 7q64 0 108 24.5t68 58t36.5 72t14.5 68.5q-4 33 -12.5 65.5t-34.5 53.5t-70.5 35t-108.5 9z
M1359 1338l-45 -1231l-281 -11l74 1249z" />
    <glyph glyph-name="udieresis" unicode="&#xfc;" horiz-adv-x="1217" 
d="M193 77l-23 1234l254 14v-318l186 -2q109 -2 193 -34.5t141 -89t87 -131.5t34 -161q2 -96 -15.5 -186t-60.5 -158.5t-112.5 -111.5t-171.5 -45zM485 735l2 -410l88 2q64 2 106 26.5t65.5 59.5t32.5 76t9 74q-2 35 -13 67.5t-37.5 57t-70.5 38t-108 11.5z" />
    <glyph glyph-name="yacute" unicode="&#xfd;" horiz-adv-x="1325" 
d="M394 512q13 -66 33 -96.5t50.5 -40t76.5 -3.5t109 12q35 4 56.5 4t38 4t31 11.5t32.5 21.5q26 19 39.5 55t20.5 83.5t2 81.5h-333v177l326 20q14 197 -6.5 224.5t-41 37.5t-54 13.5t-67.5 10.5t-58 0t-75 -17t-85 -34t-88 -146l-265 -41q20 183 67.5 254.5t98.5 109
t136 61t275 30.5q232 -20 296 -44t91.5 -64.5t51 -91.5t16.5 -182q0 -68 -3 -162q-1 -94 -10 -189t-25 -178t-46 -129q-34 -54 -86.5 -93t-113.5 -64.5t-124.5 -40.5t-118.5 -21q-148 -13 -248 -2t-161.5 55t-88 127t-22.5 216z" />
    <glyph glyph-name="thorn" unicode="&#xfe;" horiz-adv-x="1701" 
d="M700 1250q74 41 118.5 56.5t102 20.5t173.5 5q100 -10 193 -25.5t177.5 -56.5t124 -112t76.5 -319q0 -193 -18.5 -332.5t-82 -229.5t-182.5 -131t-320 -35q-114 -16 -199 24t-143.5 117t-94.5 183.5t-52 225t-17 240.5t7 130t35 83t102 156zM815 673q21 -55 39 -99
t41.5 -95.5t61.5 -87t97 -35.5q72 0 141.5 17t110.5 65q21 24 34 64t22.5 90t13.5 109.5t4 121.5q6 81 -24.5 132t-85 81.5t-190.5 30.5q-163 -41 -200.5 -81.5t-71.5 -102.5zM102 1624h272l81 -1496l-309 -10zM387 815l211 7l13 -238l-224 -34v265z" />
    <glyph glyph-name="ydieresis" unicode="&#xff;" horiz-adv-x="1411" 
d="M1243 102l-271 -21l-29 388l-41 -4q-14 0 -22 -1t-12 -2t-9.5 -6t-17.5 -13q-8 -8 -22.5 -33t-63 -68t-245.5 -254l-306 -20q293 313 314.5 347t27.5 44q-51 8 -106.5 12.5t-83.5 18.5q-97 49 -153 134t-67 206q-2 35 -1 81t5.5 92t14.5 88t24 67q58 100 170 145
q27 10 45.5 19.5t40 15.5t52 10t82.5 8l575 31zM915 785l-29 344l-223 -14q-25 -3 -54.5 -6t-59.5 -9t-55.5 -17t-41.5 -30q-23 -24 -33 -43.5t-14 -37t-3 -34t3 -36.5q4 -50 38.5 -85.5t80.5 -39.5q22 -4 54 -5.5t60 -1.5q29 0 52.5 1.5t31.5 1.5z" />
    <glyph glyph-name="uni0401" unicode="&#x401;" horiz-adv-x="1288" 
d="M711 1485l125 -114l132 125l136 -11l-114 -256l-478 22l-17 -364l441 40l-32 -250l-426 -11l5 -444l604 -13l-41 -175l-925 -25l72 1476h114l114 -131l148 142zM1015 1627l-179 -199l-71 107q-22 28 -38 51q-14 20 -24.5 36t-8.5 16zM273 1627h324l-176 -211l-91 137z
" />
    <glyph glyph-name="uniE01A" unicode="&#x411;" horiz-adv-x="1346" 
d="M963 1589q7 -213 8.5 -230.5t-287 5.5t-349 17t-67.5 16q10 -64 36 -310q10 -113 10 -138q155 -14 243.5 -19t208.5 -18q137 -18 232 -88q69 -37 117.5 -146t56.5 -251q8 -117 -40.5 -205.5t-138.5 -140.5q-15 -11 -19.5 -16.5t-8.5 -11t-14.5 -10.5t-39.5 -6
q-154 -20 -203 -18l-569 3l-89 1604zM681 260q57 -1 103 16.5t77 48t44 65.5t12 72q-1 31 -11 74t-34.5 72t-75.5 54t-144 41l-304 25l36 -471z" />
    <glyph glyph-name="afii10019" unicode="&#x412;" horiz-adv-x="1346" 
d="M756 1632q53 0 92 -6t69.5 -19.5t57 -33t55.5 -45.5q57 -51 90 -114.5t35 -141.5q0 -33 3 -78t2 -91t-7 -88t-23 -67q-10 -16 -13 -20t-9 -9.5t-20.5 -20.5t-47.5 -52q68 -35 112 -142.5t48 -248.5q4 -117 -47 -208t-143 -147q-15 -10 -19 -16t-8 -11t-15.5 -10.5
t-39.5 -9.5q-154 -24 -203 -24l-565 -17l-35 1602zM698 969q74 2 112 25.5t53.5 60.5t15.5 82v94q-2 65 -44 111.5t-145 43.5l-297 -8l13 -417zM707 268q57 2 103 21.5t77 50.5t46 66.5t15 72.5q0 31 -19.5 68t-53 67.5t-82 51t-107.5 18.5l-278 -16l4 -412z" />
    <glyph glyph-name="afii10020" unicode="&#x413;" horiz-adv-x="1341" 
d="M125 17l70 1571l1030 -47l-17 -277l-706 33l-117 -1284z" />
    <glyph glyph-name="afii10021" unicode="&#x414;" horiz-adv-x="1317" 
d="M1097 1702l18 -1374h189l-82 -448l-107 284l-353 -6q-75 0 -106.5 -4t-79 -4t-82.5 4t-122 -2q-161 3 -162.5 -1.5t-140.5 -270.5q-56 404 -64.5 428.5t181.5 6.5q1 45 6 99q-12 90 -17.5 147.5t-7.5 102.5t-1 87t1 101v170t9.5 186.5t30 174.5t59.5 131q40 51 81 87
t95.5 58.5t126 32.5t170.5 10h358zM857 1397q-24 2 -65 3t-85 -2t-83 -14.5t-57 -31.5q-19 -23 -33.5 -46.5t-26.5 -62.5t-22.5 -99t-20.5 -157q-4 -41 -4 -98t3 -98t3 -91.5v-119.5q-7 -63 -9.5 -126t47.5 -53.5t85 9.5t63.5 -3.5t53.5 -3.5h59.5t44 3.5t34.5 -3.5z" />
    <glyph glyph-name="afii10022" unicode="&#x415;" horiz-adv-x="1288" 
d="M1075 1622l-8 -236l-629 -4l41 -503l508 41l17 -248l-504 4l35 -486l581 19l8 -164l-925 -20l-31 1568z" />
    <glyph glyph-name="uniE01B" unicode="&#x416;" horiz-adv-x="2007" 
d="M991 1587l27 -555l448 578l299 12l-553 -776l666 -772l-342 -31l-467 506l16 -529l-282 -12l-31 526l-406 -507l-333 6l552 779l-618 731l299 7l477 -536l-34 559z" />
    <glyph glyph-name="afii10025" unicode="&#x417;" 
d="M110 1152q-229 355 287 384l131 -8q189 -25 226.5 -78t54.5 -74t20 -50t10 -100q26 -43 -28 -152t-29 -65q-24 -51 14 -75.5t80 -42t53.5 -24t5.5 -13.5q54 -36 65 -53.5t29 -72.5t28 -114.5t16 -110.5q7 -65 4 -127t-21 -117t-54 -101.5t-96 -78.5q-30 -16 -94 -25
t-138 -15t-149 -7q-74 -2 -126 -4q-90 -2 -148 2.5t-92 18.5t-53 38t-31 61t-22.5 88t-31.5 120l189 5q1 -70 19.5 -105.5t65.5 -49t129 -9.5t212 13q41 2 63.5 24.5t43.5 56.5t27.5 74t9.5 82q2 49 -11 107q-29 86 -54 114.5t-41.5 53.5t-68.5 38l-238 -12l-27 201
q206 32 215 54t35 44.5t34.5 82.5t14 76t-2 58.5t-69.5 84.5q-58 7 -160 5q-188 9 -107 -147q46 -24 -190 -55z" />
    <glyph glyph-name="afii10026" unicode="&#x418;" 
d="M1062 1642l131 -1552l-299 -29l-65 709l-342 -717l-240 -47l-133 1553l305 26l68 -702l297 729z" />
    <glyph glyph-name="afii10027" unicode="&#x419;" horiz-adv-x="1383" 
d="M1201 1547l-21 -1542l-302 3l1 716l-409 -681l-244 -21l-89 1498h318l64 -737l446 764h236zM478 1627l233 6l102 -131l-119 -194z" />
    <glyph glyph-name="afii10028" unicode="&#x41a;" horiz-adv-x="1448" 
d="M432 1587l27 -555l448 578l299 12l-553 -776l666 -772l-342 -31l-467 506l16 -529l-282 -12l-94 1565z" />
    <glyph glyph-name="afii10029" unicode="&#x41b;" horiz-adv-x="1276" 
d="M39 40l592 1573h77l305 -1579l-295 1l-130 760l-279 -756z" />
    <glyph glyph-name="Igrave" unicode="&#x41c;" horiz-adv-x="1589" 
d="M387 1561l387 -752l301 803l254 22l103 -1499l-291 -20l-45 694l-277 -678l-360 662l30 -740l-251 -12l-103 1503z" />
    <glyph glyph-name="afii10031" unicode="&#x41d;" horiz-adv-x="1468" 
d="M436 1593l53 -643l433 37l-17 627l320 16l82 -1569l-320 -16l-37 655l-446 -30l14 -647l-287 -3l-81 1569z" />
    <glyph glyph-name="Icircumflex" unicode="&#x41e;" horiz-adv-x="1419" 
d="M240 1382q14 37 45.5 78t83 75t120 56.5t158.5 22.5q197 0 316.5 -36t186.5 -131t89.5 -264t22.5 -435q0 -193 -18.5 -332.5t-82 -229.5t-182.5 -131t-320 -35q-114 -16 -199 24t-143.5 117t-94.5 183.5t-52 225t-17 240.5t10 231.5t31.5 196.5t45.5 136v8zM426 614
q14 -43 28.5 -99t38 -107.5t61.5 -87t97 -35.5q72 0 141.5 17t110.5 65q21 24 34 64t22.5 90t13.5 109.5t4 121.5q0 213 -18.5 328.5t-58.5 169t-100.5 62.5t-144.5 9q-137 0 -190 -105.5t-53 -332.5z" />
    <glyph glyph-name="afii10034" unicode="&#x420;" horiz-adv-x="1217" 
d="M705 1595q102 -2 171.5 -45t112.5 -111.5t60.5 -158.5t15.5 -186q-4 -86 -34 -161t-87 -131.5t-141 -89t-193 -34.5l-186 -2l-21 -660h-239l29 1590zM559 946q64 -2 108 11.5t70.5 38t37.5 57t13 67.5q0 33 -9 74t-32.5 76t-65.5 59.5t-106 26.5l-88 2l-2 -410z" />
    <glyph glyph-name="agrave.001" unicode="&#x430;" horiz-adv-x="1373" 
d="M408 247l-69 -156l-285 -1l619 1194h217l393 -1226l-322 13l-33 145zM754 951l-252 -446l387 -25z" />
    <glyph glyph-name="aacute.001" unicode="&#x431;" horiz-adv-x="1346" 
d="M1029 1291l-81 -168l-620 -7l8 -233q167 0 258.5 3.5t215.5 -11.5q90 -24 183 -51q72 -58 112 -123.5t40 -189.5q8 -132 -32.5 -215.5t-119.5 -141.5q-15 -11 -19.5 -16.5t-8.5 -11t-10.5 -0.5t-43.5 -16q-154 -20 -203 -18l-569 3v1167zM681 333q57 -1 103 16.5t77 48
t44 65.5t12 72q-1 31 -14 65.5t-31 60t-58.5 36.5t-156.5 11l-300 -8l27 -370z" />
    <glyph glyph-name="acircumflex.001" unicode="&#x432;" horiz-adv-x="1346" 
d="M562 1342q202 -7 257.5 -18t82 -25.5t54.5 -51.5q39 -58 54 -131q19 -109 -47 -219q139 -43 168 -112.5t51 -215.5q22 -114 -29 -205t-143 -147q-15 -10 -19 -16t-8 -11t-15.5 -10.5t-39.5 -9.5q-154 -24 -203 -24l-565 -17l-29 1148zM693 875q109 51 131 95t18.5 77
t-25.5 76q-29 37 -69.5 40.5t-156.5 -10.5l-212 -44l-7 -255zM707 385q57 2 103 21.5t77 50.5t46 66.5t15 72.5q0 31 -21.5 56.5t-47 44t-58.5 29.5t-143 4l-284 -44l18 -313z" />
    <glyph glyph-name="atilde.001" unicode="&#x433;" horiz-adv-x="1341" 
d="M125 148l65 1136l985 15l-59 -183l-656 -22l-75 -950z" />
    <glyph glyph-name="adieresis.001" unicode="&#x434;" horiz-adv-x="1317" 
d="M1094 1284l8 -1036l182 -36l-62 -339l-106 237q-912 14 -915.5 -7.5t-131.5 -229.5l-33 339l156 29v166l-10 425l8 146q14 109 36 156.5t73 98.5t116.5 62t131.5 11h219zM875 1087q-102 22 -164 22h-80t-69 -7q-51 -37 -84 -80.5t-55 -211.5v-430t117 -102.5t357 21.5z
" />
    <glyph glyph-name="aring.001" unicode="&#x435;" horiz-adv-x="1288" 
d="M1058 1277l-22 -204l-576 -15l-8 -306l467 -37l7 -175l-445 8l44 -241l562 7l37 -188l-925 -20l-24 1157z" />
    <glyph glyph-name="ae.001" unicode="&#x436;" horiz-adv-x="2007" 
d="M1029 1641v-773l342 445l278 -58l-438 -569l620 -482l-295 -73l-478 365v-394l-255 -6l-15 371l-358 -350l-262 36l481 525l-561 497l255 102l430 -387l-22 744z" />
    <glyph glyph-name="ccedilla.001" unicode="&#x437;" 
d="M182 1051q-7 182 269 269h125q146 -58 164.5 -72.5t29.5 -29t32 -65.5q8 -44 8 -124q7 -59 -88 -168q102 22 219 -95q80 -88 102 -204q22 -95 15 -146t-22 -87.5t-42.5 -79.5t-87.5 -75q-30 -16 -94 -25t-138 -15t-149 -7q-74 -2 -126 -4q-90 -2 -139 7t-67 12.5t-47 29
t-56 67t-37.5 92.5t-16.5 19l212 15q-15 0 39.5 -38.5t136.5 -34.5t212 13q146 23 145.5 114.5t-22.5 193.5q-37 36 -66 54.5t-175 18.5l-153 -29v189q160 37 218.5 69.5t73 76.5t11 84t-54.5 91q-73 37 -139 0q-58 -22 -124 -153z" />
    <glyph glyph-name="egrave.001" unicode="&#x438;" 
d="M1116 1306l51 -1116l-273 -27l-40 494l-367 -502l-240 -47l-87 1176l314 -29l22 -620l379 656z" />
    <glyph glyph-name="eacute.001" unicode="&#x439;" horiz-adv-x="1383" 
d="M1204 1262l-24 -1162l-283 38l-22 467l-405 -467l-244 -21l-36 1101l257 73l86 -656l437 649zM511 1466l204 95l51 -160l-66 -175z" />
    <glyph glyph-name="ecircumflex.001" unicode="&#x43a;" horiz-adv-x="1448" 
d="M416 1627l36 -810l285 489l255 14l-328 -627l655 -517l-342 -31l-488 351l14 -379l-259 -7l-76 1466z" />
    <glyph glyph-name="edieresis.001" unicode="&#x43b;" horiz-adv-x="1339" 
d="M197 98l523 1186l80 -7l371 -1185l-295 1l-156 483l-253 -479z" />
    <glyph glyph-name="igrave.001" unicode="&#x43c;" horiz-adv-x="1589" 
d="M496 1247l328 -561l234 627l292 22l82 -1142l-291 -20l-39 557l-270 -497l-336 445l-7 -567l-251 -12l-70 1185z" />
    <glyph glyph-name="iacute.001" unicode="&#x43d;" horiz-adv-x="1468" 
d="M474 1299l15 -460l452 -7l-29 474l335 29l60 -1194l-320 -16l-31 473l-453 15l15 -510l-287 -3l-49 1184z" />
    <glyph glyph-name="icircumflex.001" unicode="&#x43e;" horiz-adv-x="1419" 
d="M325 1181q101 51 166 76.5t180.5 34.5t329.5 -34q120 -86 172 -163t89 -245q0 -193 -18.5 -332.5t-82 -229.5t-182.5 -131t-277 -51q-157 0 -242 40t-143.5 117t-94.5 183.5t-39 223.5t5.5 190t17 111.5t59.5 132.5zM426 716q14 -43 28.5 -99t38 -107.5t61.5 -87
t97 -35.5q72 0 147 3t118 46q51 43 68 81.5t30 72.5t13 107t-17 176q-34 60 -64 89.5t-68.5 42.5t-141.5 13q-103 9 -167 -25.5t-115 -94.5z" />
    <glyph glyph-name="idieresis.001" unicode="&#x43f;" 
d="M556 1344l248 -9l180 -17h146l-69 -1201l-273 38l42 898l-317 25l-99 -906l-283 16l74 1173z" />
    <glyph glyph-name="eth.001" unicode="&#x440;" horiz-adv-x="1282" 
d="M709 1274q167 -40 234.5 -99.5t87.5 -135t28 -162.5t6 -183q-4 -86 -13 -191t-64.5 -192.5t-127.5 -119.5t-231 -48h-199l-24 -533l-247 24l40 1648zM629 398q120 32 151.5 84t39.5 99.5t16 107.5t0 107q-40 96 -67.5 120t-78.5 31t-115 9l-113 -8l-24 -542z" />
    <glyph glyph-name="ntilde.001" unicode="&#x441;" horiz-adv-x="1325" 
d="M1176 554q2 -133 -26 -219t-90.5 -136.5t-162.5 -72t-248 -23.5q-55 0 -118.5 8.5t-124 28t-112.5 53t-85 84.5q-29 43 -44 125t-22.5 176.5t-7.5 188.5t8 149q48 127 84 175t87.5 83.5t99.5 55.5t217 52q165 0 225 -16t119.5 -44t107.5 -95.5t56 -226.5l-215 -8l-35 71
q-61 64 -132 80q-112 8 -158 -8t-79.5 -40t-61.5 -71.5t-32 -67.5t-20 -77q0 -61 2 -117.5t8 -103.5t19.5 -82t37.5 -51q19 -12 33 -18.5t30.5 -8.5t38 0t56.5 2q63 0 109 -1t77 11.5t51.5 45t34.5 100.5z" />
    <glyph glyph-name="ograve.001" unicode="&#x442;" horiz-adv-x="1374" 
d="M1226 1346l-15 -215l-367 -48l55 -958l-244 -17l-58 967l-366 -16l-32 239z" />
    <glyph glyph-name="oacute.001" unicode="&#x443;" horiz-adv-x="1493" 
d="M432 1278l388 -665l303 669l263 -71l-406 -861l-494 -812l-191 183l366 613l-530 948z" />
    <glyph glyph-name="ocircumflex.001" unicode="&#x444;" horiz-adv-x="1942" 
d="M1617 1190q8 0 34 -32t56 -83.5t47 -120t9 -158.5q-16 -197 -61.5 -316.5t-146 -186.5t-271 -89.5t-436.5 -22.5q-193 0 -331 18.5t-223 82t-116.5 182.5t-9.5 320q-6 114 40.5 199t126 170t195 120.5t235 47.5t239 16t239 -16t203 -39.5t155.5 -67.5zM788 1078
q-94 -32 -143 -55.5t-89 -59.5t-67 -64t-55 -107q-6 -72 5.5 -141.5t56.5 -110.5q22 -21 61 -34t88 -22.5t108.5 -13.5t121.5 -4q213 0 330 18.5t173.5 58.5t70.5 100.5t21 144.5q11 137 -76.5 205.5t-350.5 92.5zM836 1421l319 8l-128 -1840l-262 -16z" />
    <glyph glyph-name="otilde.001" unicode="&#x445;" horiz-adv-x="1497" 
d="M605 1274l199 -390l215 374l335 8l-359 -621l342 -576h-313l-244 361l-288 -353l-349 20l470 556l-334 605z" />
    <glyph glyph-name="odieresis.001" unicode="&#x446;" horiz-adv-x="1605" 
d="M494 1274l79 -860l390 -38l1 914l270 8l16 -940l239 8l-119 -509l-114 271l-953 23l-120 1107z" />
    <glyph glyph-name="divide.001" unicode="&#x447;" horiz-adv-x="1459" 
d="M1163 1314l8 -270q4 -66 47 -956l-250 8q0 372 -22 362q-33 -12 -47.5 -18t-28.5 -10.5t-38 -9.5t-73 -17q-26 -6 -46.5 -11.5t-40 -7.5t-43 -3t-54.5 1q-64 4 -102.5 11.5t-81.5 27.5q-43 19 -73 37.5t-51.5 41t-37 52t-31.5 72.5q-12 33 -22.5 83t-17.5 102.5t-12 98.5
t-7 72l-19 286l278 8l32 -388q8 -123 56 -182t167 -51q116 6 178.5 76.5t54.5 193.5l-30 391h307z" />
    <glyph glyph-name="oslash.001" unicode="&#x448;" horiz-adv-x="1728" 
d="M557 1314l-37 -938l209 1l59 794l279 -16l-24 -773l207 16l32 916l303 -24l-65 -871l-9 -279l-72 -1l-1199 -3l39 1170z" />
    <glyph glyph-name="ugrave" unicode="&#x449;" horiz-adv-x="1728" 
d="M366 1314l72 -934l208 15l-57 839l303 -16l53 -792l218 28l-88 868l304 40l43 -875l195 -33l-168 -526l-70 280l-1187 -82l-104 1180z" />
    <glyph glyph-name="uacute.001" unicode="&#x44a;" horiz-adv-x="1251" 
d="M137 98l87 996l-136 7l-27 203l452 28l-27 -311l186 -8q109 -5 188.5 -40.5t129 -93.5t69.5 -133.5t15 -162.5q-11 -96 -40 -185.5t-80 -157t-126.5 -108.5t-178.5 -40zM513 747l-50 -411l88 -1q64 1 109 24t73 57t42.5 75.5t18.5 74.5q2 36 -4.5 68t-30 57.5t-66 40.5
t-106.5 14z" />
    <glyph glyph-name="ucircumflex.001" unicode="&#x44b;" horiz-adv-x="1507" 
d="M90 92l59 1240l245 6l-30 -367h189q114 0 199 -28.5t141 -81.5t82.5 -123.5t24.5 -151.5q1 -90 -20 -176.5t-69.5 -152t-121.5 -107.5t-175 -44zM416 716l-15 -391l92 7q64 0 108 24.5t68 58t36.5 72t14.5 68.5q-4 33 -12.5 65.5t-34.5 53.5t-70.5 35t-108.5 9z
M1359 1338l-45 -1231l-281 -11l74 1249z" />
    <glyph glyph-name="udieresis.001" unicode="&#x44c;" horiz-adv-x="1217" 
d="M193 77l-23 1234l254 14v-318l186 -2q109 -2 193 -34.5t141 -89t87 -131.5t34 -161q2 -96 -15.5 -186t-60.5 -158.5t-112.5 -111.5t-171.5 -45zM485 735l2 -410l88 2q64 2 106 26.5t65.5 59.5t32.5 76t9 74q-2 35 -13 67.5t-37.5 57t-70.5 38t-108 11.5z" />
    <glyph glyph-name="yacute.001" unicode="&#x44d;" horiz-adv-x="1325" 
d="M394 512q13 -66 33 -96.5t50.5 -40t76.5 -3.5t109 12q35 4 56.5 4t38 4t31 11.5t32.5 21.5q26 19 39.5 55t20.5 83.5t2 81.5h-333v177l326 20q14 197 -6.5 224.5t-41 37.5t-54 13.5t-67.5 10.5t-58 0t-75 -17t-85 -34t-88 -146l-265 -41q20 183 67.5 254.5t98.5 109
t136 61t275 30.5q232 -20 296 -44t91.5 -64.5t51 -91.5t16.5 -182q0 -68 -3 -162q-1 -94 -10 -189t-25 -178t-46 -129q-34 -54 -86.5 -93t-113.5 -64.5t-124.5 -40.5t-118.5 -21q-148 -13 -248 -2t-161.5 55t-88 127t-22.5 216z" />
    <glyph glyph-name="thorn.001" unicode="&#x44e;" horiz-adv-x="1701" 
d="M700 1250q74 41 118.5 56.5t102 20.5t173.5 5q100 -10 193 -25.5t177.5 -56.5t124 -112t76.5 -319q0 -193 -18.5 -332.5t-82 -229.5t-182.5 -131t-320 -35q-114 -16 -199 24t-143.5 117t-94.5 183.5t-52 225t-17 240.5t7 130t35 83t102 156zM815 673q21 -55 39 -99
t41.5 -95.5t61.5 -87t97 -35.5q72 0 141.5 17t110.5 65q21 24 34 64t22.5 90t13.5 109.5t4 121.5q6 81 -24.5 132t-85 81.5t-190.5 30.5q-163 -41 -200.5 -81.5t-71.5 -102.5zM102 1624h272l81 -1496l-309 -10zM387 815l211 7l13 -238l-224 -34v265z" />
    <glyph glyph-name="ydieresis.001" unicode="&#x44f;" horiz-adv-x="1411" 
d="M1243 102l-271 -21l-29 388l-41 -4q-14 0 -22 -1t-12 -2t-9.5 -6t-17.5 -13q-8 -8 -22.5 -33t-63 -68t-245.5 -254l-306 -20q293 313 314.5 347t27.5 44q-51 8 -106.5 12.5t-83.5 18.5q-97 49 -153 134t-67 206q-2 35 -1 81t5.5 92t14.5 88t24 67q58 100 170 145
q27 10 45.5 19.5t40 15.5t52 10t82.5 8l575 31zM915 785l-29 344l-223 -14q-25 -3 -54.5 -6t-59.5 -9t-55.5 -17t-41.5 -30q-23 -24 -33 -43.5t-14 -37t-3 -34t3 -36.5q4 -50 38.5 -85.5t80.5 -39.5q22 -4 54 -5.5t60 -1.5q29 0 52.5 1.5t31.5 1.5z" />
    <glyph glyph-name="0401" unicode="&#x451;" horiz-adv-x="1288" 
d="M1053 1291l-54 -231l-530 7l-27 -299h482l-56 -199l-423 -15l38 -257l604 -13l-41 -175l-925 -25l76 1241zM965 1597l-61 -211l-177 41q8 49 15 88l6 32t5.5 28.5t4.5 20t3 7.5zM323 1607l205 16l8 -205l-174 -8z" />
    <glyph glyph-name="glyph65" horiz-adv-x="1411" 
d="M434 205l-69 -156l-299 17l636 1544l236 -4l371 -1590l-322 13l-33 145zM780 1110l-252 -647l387 -25z" />
    <glyph glyph-name="glyph66" horiz-adv-x="1346" 
d="M756 1632q53 0 92 -6t69.5 -19.5t57 -33t55.5 -45.5q57 -51 90 -114.5t35 -141.5q0 -33 3 -78t2 -91t-7 -88t-23 -67q-10 -16 -13 -20t-9 -9.5t-20.5 -20.5t-47.5 -52q68 -35 112 -142.5t48 -248.5q4 -117 -47 -208t-143 -147q-15 -10 -19 -16t-8 -11t-15.5 -10.5
t-39.5 -9.5q-154 -24 -203 -24l-565 -17l-35 1602zM698 969q74 2 112 25.5t53.5 60.5t15.5 82v94q-2 65 -44 111.5t-145 43.5l-297 -8l13 -417zM707 268q57 2 103 21.5t77 50.5t46 66.5t15 72.5q0 31 -19.5 68t-53 67.5t-82 51t-107.5 18.5l-278 -16l4 -412z" />
    <glyph glyph-name="glyph67" horiz-adv-x="1325" 
d="M1176 467q2 -133 -26 -219t-90.5 -136.5t-162.5 -72t-248 -23.5q-55 0 -118.5 8.5t-124 28t-112.5 53t-85 84.5q-29 43 -44 125t-22.5 176.5t-7.5 188.5v162q2 170 8.5 306t49.5 232.5t139 150.5t276 58q150 4 252.5 -4t164.5 -47t93 -118t41 -216l-258 -6q-6 16 -7 27.5
t-4 21.5t-8 22.5t-20 30.5q-16 23 -41.5 35.5t-93.5 12.5q-49 0 -86 -3.5t-65.5 -11.5t-52 -21.5t-44.5 -33.5q-39 -41 -55 -116t-20.5 -161t-1 -168.5t3.5 -140.5q0 -61 2 -117.5t8 -103.5t19.5 -82t37.5 -51q19 -12 33 -18.5t30.5 -8.5t38 0t56.5 2q63 0 109 -1t77 11.5
t51.5 45t34.5 100.5z" />
    <glyph glyph-name="glyph68" horiz-adv-x="1317" 
d="M571 1626q99 0 170.5 -10t126 -32.5t95.5 -58.5t81 -87q39 -49 59.5 -131t30 -174.5t9.5 -186.5v-170q0 -59 1 -101t-1 -87t-7.5 -102.5t-17.5 -147.5q-6 -39 -23.5 -80t-47 -78t-69.5 -64.5t-91 -41.5q-37 -11 -82 -20t-90 -17t-86 -12.5t-72 -4.5h-391v1606h405z
M463 362q14 3 43 8t59.5 12t59 15.5t43 16.5t33 18t38 30.5t38 53.5t32.5 86q6 25 14 60.5t14.5 77.5t9.5 86t-1 85q-10 97 -20.5 157t-22.5 99t-26.5 62.5t-33.5 46.5q-18 20 -57 31.5t-83 14.5t-85 2t-65 -3z" />
    <glyph glyph-name="glyph69" horiz-adv-x="1288" 
d="M1075 1622l-8 -236l-629 -4l41 -503l508 41l17 -248l-504 4l35 -486l581 19l8 -164l-925 -20l-31 1568z" />
    <glyph glyph-name="glyph73" horiz-adv-x="1448" 
d="M150 1573l94 -1565l282 12l-16 529l467 -506l342 31l-666 772l553 776l-299 -12l-448 -578l-27 555z" />
    <glyph glyph-name="glyph75" horiz-adv-x="1589" 
d="M387 1561l387 -752l301 803l254 22l103 -1499l-291 -20l-45 694l-277 -678l-360 662l30 -740l-251 -12l-103 1503z" />
    <glyph glyph-name="glyph77" horiz-adv-x="1419" 
d="M240 1382q14 37 45.5 78t83 75t120 56.5t158.5 22.5q197 0 316.5 -36t186.5 -131t89.5 -264t22.5 -435q0 -193 -18.5 -332.5t-82 -229.5t-182.5 -131t-320 -35q-114 -16 -199 24t-143.5 117t-94.5 183.5t-52 225t-17 240.5t10 231.5t31.5 196.5t45.5 136v8zM426 614
q14 -43 28.5 -99t38 -107.5t61.5 -87t97 -35.5q72 0 141.5 17t110.5 65q21 24 34 64t22.5 90t13.5 109.5t4 121.5q0 213 -18.5 328.5t-58.5 169t-100.5 62.5t-144.5 9q-137 0 -190 -105.5t-53 -332.5z" />
    <glyph glyph-name="glyph78" horiz-adv-x="1217" 
d="M705 1595q102 -2 171.5 -45t112.5 -111.5t60.5 -158.5t15.5 -186q-4 -86 -34 -161t-87 -131.5t-141 -89t-193 -34.5l-186 -2l-21 -660h-239l29 1590zM559 946q64 -2 108 11.5t70.5 38t37.5 57t13 67.5q0 33 -9 74t-32.5 76t-65.5 59.5t-106 26.5l-88 2l-2 -410z" />
    <glyph glyph-name="glyph79" horiz-adv-x="1436" 
d="M1163 285q37 -35 55.5 -49.5t31 -22.5t26.5 -16.5t43 -26.5l-135 -195q-23 15 -36 23t-25.5 15t-28 18.5t-41.5 29.5q-15 11 -16 9t-4 -10.5t-17.5 -20.5t-54.5 -23q-52 -4 -89.5 -5t-74.5 0t-78 3t-96 2h-82t-83 9.5t-87 31t-95 62.5q-47 39 -72.5 114.5t-37.5 168
t-15.5 192.5t-3.5 190t4.5 207t23 226.5t54 194.5t101.5 114q10 4 21 16t38 25.5t77 26t140 16.5q115 6 193 -5.5t149 -31.5q80 -23 135.5 -66t91 -115.5t51 -177t15.5 -249.5q0 -80 3 -178.5t-2 -193.5t-22.5 -177t-56.5 -131zM915 426q17 18 27 53t15.5 81t6.5 100.5
t1 111.5q0 143 -3.5 263t-32 202t-93 121t-189.5 20q-31 -4 -60.5 -12t-56 -29.5t-49 -60.5t-37.5 -105q-14 -57 -29.5 -155t-19.5 -252t7.5 -252t37 -154.5t64.5 -79t86 -26.5t102.5 2t116.5 10q8 0 -1 5t-23.5 13.5t-28 16.5t-15.5 18v211q37 -22 49.5 -28t21.5 -11.5
t29.5 -17.5t73.5 -45z" />
    <glyph glyph-name="glyph80" horiz-adv-x="1411" 
d="M252 1618l575 -31q52 -4 82.5 -8t52 -10t40 -15.5t45.5 -19.5q112 -45 170 -145q14 -25 24 -67t14.5 -88t5.5 -92t-1 -81q-11 -121 -67 -206t-153 -134q-28 -14 -83.5 -18.5t-106.5 -12.5q6 -10 27.5 -44t67.5 -109.5t122 -203.5t190 -331l-309 21l-276 446
q-13 20 -29 52t-33.5 63.5t-32 56.5t-22.5 33q-12 8 -17.5 13t-9.5 6t-12 2t-22 1l-41 4l-58 -614l-260 25zM674 1004q8 0 31.5 -1.5t52.5 -1.5q28 0 60 1.5t54 5.5q46 4 80.5 39.5t38.5 85.5q2 20 3 36.5t-3 34t-14 37t-33 43.5q-16 19 -41.5 30t-55.5 17t-59.5 9t-54.5 6
l-223 14l-29 -344z" />
    <glyph glyph-name="glyph86" horiz-adv-x="1497" 
d="M504 1581l268 -557l272 553h289l-372 -780l376 -768h-313l-252 495l-280 -487l-349 20l467 725l-432 807z" />
    <glyph glyph-name="glyph87" horiz-adv-x="1493" 
d="M131 1577l471 -758l12 -819l273 16l-8 781l481 784l-303 8l-312 -512l-313 496z" />
    <glyph glyph-name="glyph92" horiz-adv-x="1411" 
d="M434 205l-69 -156l-299 17l636 1544l236 -4l371 -1590l-322 13l-33 145zM780 1110l-252 -647l387 -25z" />
    <glyph glyph-name="glyph93" horiz-adv-x="1346" 
d="M756 1632q53 0 92 -6t69.5 -19.5t57 -33t55.5 -45.5q57 -51 90 -114.5t35 -141.5q0 -33 3 -78t2 -91t-7 -88t-23 -67q-10 -16 -13 -20t-9 -9.5t-20.5 -20.5t-47.5 -52q68 -35 112 -142.5t48 -248.5q4 -117 -47 -208t-143 -147q-15 -10 -19 -16t-8 -11t-15.5 -10.5
t-39.5 -9.5q-154 -24 -203 -24l-565 -17l-35 1602zM698 969q74 2 112 25.5t53.5 60.5t15.5 82v94q-2 65 -44 111.5t-145 43.5l-297 -8l13 -417zM707 268q57 2 103 21.5t77 50.5t46 66.5t15 72.5q0 31 -19.5 68t-53 67.5t-82 51t-107.5 18.5l-278 -16l4 -412z" />
    <glyph glyph-name="glyph94" horiz-adv-x="1325" 
d="M1176 467q2 -133 -26 -219t-90.5 -136.5t-162.5 -72t-248 -23.5q-55 0 -118.5 8.5t-124 28t-112.5 53t-85 84.5q-29 43 -44 125t-22.5 176.5t-7.5 188.5v162q2 170 8.5 306t49.5 232.5t139 150.5t276 58q150 4 252.5 -4t164.5 -47t93 -118t41 -216l-258 -6q-6 16 -7 27.5
t-4 21.5t-8 22.5t-20 30.5q-16 23 -41.5 35.5t-93.5 12.5q-49 0 -86 -3.5t-65.5 -11.5t-52 -21.5t-44.5 -33.5q-39 -41 -55 -116t-20.5 -161t-1 -168.5t3.5 -140.5q0 -61 2 -117.5t8 -103.5t19.5 -82t37.5 -51q19 -12 33 -18.5t30.5 -8.5t38 0t56.5 2q63 0 109 -1t77 11.5
t51.5 45t34.5 100.5z" />
    <glyph glyph-name="glyph95" horiz-adv-x="1317" 
d="M571 1626q99 0 170.5 -10t126 -32.5t95.5 -58.5t81 -87q39 -49 59.5 -131t30 -174.5t9.5 -186.5v-170q0 -59 1 -101t-1 -87t-7.5 -102.5t-17.5 -147.5q-6 -39 -23.5 -80t-47 -78t-69.5 -64.5t-91 -41.5q-37 -11 -82 -20t-90 -17t-86 -12.5t-72 -4.5h-391v1606h405z
M463 362q14 3 43 8t59.5 12t59 15.5t43 16.5t33 18t38 30.5t38 53.5t32.5 86q6 25 14 60.5t14.5 77.5t9.5 86t-1 85q-10 97 -20.5 157t-22.5 99t-26.5 62.5t-33.5 46.5q-18 20 -57 31.5t-83 14.5t-85 2t-65 -3z" />
    <glyph glyph-name="glyph97" horiz-adv-x="1452" 
d="M895 721l391 45l27 -348q-27 -117 -91.5 -192.5t-162.5 -112.5q-66 -25 -144.5 -43.5t-185.5 -28.5q-121 -10 -186.5 -3t-106.5 29.5t-68.5 59.5t-70.5 86q-35 37 -56.5 99.5t-34.5 133t-20.5 141t-11.5 128.5q-12 119 -26.5 230.5t-12.5 209.5t30 179t101 141
q33 26 67 47.5t73.5 38t89 26.5t112.5 17q121 10 202 12t142 -12q52 -13 86.5 -24t57 -24.5t37 -30t26.5 -38.5q27 -47 38 -108.5t20 -139.5l-289 -29q-6 76 -37 111t-77 44t-102.5 1t-115.5 -18q-90 -17 -130 -68t-49 -132t2 -191.5t23 -245.5q13 -133 31.5 -215t49 -125
t74.5 -54.5t108 -1.5q30 4 47 4h36q19 0 42.5 5.5t66.5 21.5l45 25q31 30 50.5 62t20.5 58.5t-22.5 43t-79.5 16.5z" />
    <glyph glyph-name="glyph98" horiz-adv-x="1468" 
d="M436 1593l53 -643l433 37l-17 627l320 16l82 -1569l-320 -16l-37 655l-446 -30l14 -647l-287 -3l-81 1569z" />
    <glyph glyph-name="glyph99" horiz-adv-x="752" 
d="M207 1638v-1638h354l-24 1638h-330z" />
    <glyph glyph-name="glyph100" horiz-adv-x="1217" 
d="M1077 1589l-51 -942q-8 -127 -12 -227.5t-33 -165.5q-12 -33 -25.5 -60.5t-32 -50t-43 -42t-61.5 -35.5q-33 -13 -53.5 -22t-43 -14t-53 -7.5t-81.5 2.5q-113 6 -180.5 18t-111.5 33.5t-72.5 53.5t-61.5 75q-29 59 -34 119.5t11 142.5l209 -37q-2 -49 13.5 -81t34 -49
t32.5 -24.5t12 -7.5q-8 0 4.5 -2t33 -5t43 -6t34.5 -3q76 -4 139.5 68.5t71.5 207.5l61 1078z" />
    <glyph glyph-name="glyph101" horiz-adv-x="1448" 
d="M150 1573l94 -1565l282 12l-16 529l467 -506l342 31l-666 772l553 776l-299 -12l-448 -578l-27 555z" />
    <glyph glyph-name="glyph102" horiz-adv-x="1341" 
d="M385 1589l117 -1284l706 33l17 -277l-1030 -47l-70 1571z" />
    <glyph glyph-name="glyph103" horiz-adv-x="1589" 
d="M387 1561l387 -752l301 803l254 22l103 -1499l-291 -20l-45 694l-277 -678l-360 662l30 -740l-251 -12l-103 1503z" />
    <glyph glyph-name="glyph104" 
d="M524 1612l297 -729l68 702l305 -26l-133 -1553l-240 47l-342 717l-65 -709l-299 29l131 1552z" />
    <glyph glyph-name="glyph105" horiz-adv-x="1419" 
d="M240 1382q14 37 45.5 78t83 75t120 56.5t158.5 22.5q197 0 316.5 -36t186.5 -131t89.5 -264t22.5 -435q0 -193 -18.5 -332.5t-82 -229.5t-182.5 -131t-320 -35q-114 -16 -199 24t-143.5 117t-94.5 183.5t-52 225t-17 240.5t10 231.5t31.5 196.5t45.5 136v8zM412 618
q14 -90 30.5 -152.5t42 -103t65.5 -59t101 -18.5q72 0 141.5 17t110.5 65q21 24 34 64t22.5 90t13.5 109.5t4 121.5q0 213 -18.5 328.5t-58.5 169t-100.5 62.5t-144.5 9q-137 0 -190 -105.5t-53 -332.5v-265z" />
    <glyph glyph-name="glyph106" horiz-adv-x="1217" 
d="M705 1595q102 -2 171.5 -45t112.5 -111.5t60.5 -158.5t15.5 -186q-4 -86 -34 -161t-87 -131.5t-141 -89t-193 -34.5l-186 -2l-21 -660h-239l29 1590zM559 946q64 -2 108 11.5t70.5 38t37.5 57t13 67.5q0 33 -9 74t-32.5 76t-65.5 59.5t-106 26.5l-88 2l-2 -410z" />
    <glyph glyph-name="glyph107" horiz-adv-x="1436" 
d="M1163 285q37 -35 55.5 -49.5t31 -22.5t26.5 -16.5t43 -26.5l-135 -195q-23 15 -36 23t-25.5 15t-28 18.5t-41.5 29.5q-15 11 -16 9t-4 -10.5t-17.5 -20.5t-54.5 -23q-52 -4 -89.5 -5t-74.5 0t-78 3t-96 2h-82t-83 9.5t-87 31t-95 62.5q-47 39 -72.5 114.5t-37.5 168
t-15.5 192.5t-3.5 190t4.5 207t23 226.5t54 194.5t101.5 114q10 4 21 16t38 25.5t77 26t140 16.5q115 6 193 -5.5t149 -31.5q80 -23 135.5 -66t91 -115.5t51 -177t15.5 -249.5q0 -80 3 -178.5t-2 -193.5t-22.5 -177t-56.5 -131zM915 426q17 18 27 53t15.5 81t6.5 100.5
t1 111.5q0 143 -3.5 263t-32 202t-93 121t-189.5 20q-31 -4 -60.5 -12t-56 -29.5t-49 -60.5t-37.5 -105q-14 -57 -29.5 -155t-19.5 -252t7.5 -252t37 -154.5t64.5 -79t86 -26.5t102.5 2t116.5 10q8 0 -1 5t-23.5 13.5t-28 16.5t-15.5 18v211q37 -22 49.5 -28t21.5 -11.5
t29.5 -17.5t73.5 -45z" />
    <glyph glyph-name="glyph108" horiz-adv-x="1411" 
d="M252 1618l575 -31q52 -4 82.5 -8t52 -10t40 -15.5t45.5 -19.5q112 -45 170 -145q14 -25 24 -67t14.5 -88t5.5 -92t-1 -81q-11 -121 -67 -206t-153 -134q-28 -14 -83.5 -18.5t-106.5 -12.5q6 -10 27.5 -44t67.5 -109.5t122 -203.5t190 -331l-309 21l-276 446
q-13 20 -29 52t-33.5 63.5t-32 56.5t-22.5 33q-12 8 -17.5 13t-9.5 6t-12 2t-22 1l-41 4l-58 -626l-260 37zM674 1004q8 0 31.5 -1.5t52.5 -1.5q28 0 60 1.5t54 5.5q46 4 80.5 39.5t38.5 85.5q2 20 3 36.5t-3 34t-14 37t-33 43.5q-16 19 -41.5 30t-55.5 17t-59.5 9t-54.5 6
l-223 14l-29 -344z" />
    <glyph glyph-name="glyph109" horiz-adv-x="1309" 
d="M406 399q4 -26 9 -41.5t11 -28t14.5 -21.5t18.5 -23q18 -23 38.5 -32t44 -11t52.5 0t61 2q50 0 90.5 19.5t71.5 48t48.5 62.5t17.5 64q0 15 1 37.5t0 45t-6.5 43t-17.5 32.5t-28.5 29.5t-42 34t-62.5 31t-92 20.5q-80 8 -131 18t-86 25.5t-61.5 36t-57.5 49.5
q-63 57 -90 145t-27 174q4 84 13.5 165t52.5 143.5t136 99.5t263 35q131 -11 213 -29.5t132 -58t78 -108.5t48 -177h-252q-14 57 -42.5 91t-58.5 50t-54.5 21.5t-28.5 7.5q-39 10 -76 7t-68.5 -14.5t-55 -30t-36.5 -38.5q-16 -27 -22 -57.5t-8 -60t0 -53.5t6 -34
q8 -35 30.5 -62.5t51 -49t60.5 -36t63 -20.5q73 -16 116 -24t72 -16.5t50.5 -16.5t54.5 -25q124 -63 186 -161q59 -97 59 -218q0 -141 -77.5 -259.5t-219.5 -180.5q-34 -14 -49.5 -21.5t-30 -9.5t-38.5 -2h-78q-92 0 -153.5 4.5t-105.5 15.5t-77 32.5t-70 56.5
q-37 37 -56.5 61.5t-29.5 51t-14 62.5t-8 91z" />
    <glyph glyph-name="glyph110" horiz-adv-x="1374" 
d="M1202 1626l10 -256l-397 -29l84 -1304l-244 -17l-120 1303l-379 -43l-13 258z" />
    <glyph glyph-name="glyph111" horiz-adv-x="1395" 
d="M1167 1630l66 -952q4 -66 4 -133q0 -66 -9 -130.5t-30.5 -123t-62.5 -105.5q-21 -22 -34.5 -35.5t-26.5 -23.5t-28.5 -17.5t-37.5 -17.5q-33 -12 -47.5 -18t-28.5 -10.5t-38 -9.5t-73 -17q-26 -6 -46.5 -11.5t-40 -7.5t-43 -3t-54.5 1q-64 4 -102.5 11.5t-81.5 27.5
q-43 19 -73 37.5t-51.5 41t-37 52t-31.5 72.5q-12 33 -22.5 83t-17.5 102.5t-12 98.5t-7 72l-56 945l273 18l74 -1057q8 -123 56 -182t167 -51q116 6 178.5 76.5t54.5 193.5l-86 1055z" />
    <glyph glyph-name="glyph112" horiz-adv-x="1276" 
d="M418 1599l182 -763l227 755l293 -8l-504 -1567l-77 2l-389 1588z" />
    <glyph glyph-name="glyph113" horiz-adv-x="1581" 
d="M406 1604l94 -736l235 705l103 -6l112 -758l203 747l277 -28l-433 -1512l-127 9l-141 677l-213 -657l-151 10l-211 1557z" />
    <glyph glyph-name="glyph114" horiz-adv-x="1497" 
d="M504 1581l268 -557l272 553h289l-372 -780l376 -768h-313l-252 495l-280 -487l-349 20l467 725l-432 807z" />
    <glyph glyph-name="glyph115" horiz-adv-x="1493" 
d="M131 1577l471 -758l12 -819l273 16l-8 781l481 784l-303 8l-312 -512l-313 496z" />
    <glyph glyph-name="glyph116" horiz-adv-x="1456" 
d="M1167 1640l11 -223l-672 -1132l784 92l23 -246l-1120 -127l-23 234l676 1148l-733 -96l-7 228z" />
    <glyph glyph-name="glyph196" horiz-adv-x="1411" 
d="M434 205l-69 -156l-299 17l636 1544l236 -4l371 -1590l-322 13l-33 145zM780 1110l-252 -647l387 -25z" />
    <glyph glyph-name="glyph197" horiz-adv-x="1346" 
d="M963 1589q7 -213 8.5 -230.5t-287 5.5t-349 17t-67.5 16q10 -64 36 -310q10 -113 10 -138q155 -14 243.5 -19t208.5 -18q137 -18 232 -88q69 -37 117.5 -146t56.5 -251q8 -117 -40.5 -205.5t-138.5 -140.5q-15 -11 -19.5 -16.5t-8.5 -11t-14.5 -10.5t-39.5 -6
q-154 -20 -203 -18l-569 3l-89 1604zM681 260q57 -1 103 16.5t77 48t44 65.5t12 72q-1 31 -11 74t-34.5 72t-75.5 54t-144 41l-304 25l36 -471z" />
    <glyph glyph-name="glyph198" horiz-adv-x="1346" 
d="M756 1632q53 0 92 -6t69.5 -19.5t57 -33t55.5 -45.5q57 -51 90 -114.5t35 -141.5q0 -33 3 -78t2 -91t-7 -88t-23 -67q-10 -16 -13 -20t-9 -9.5t-20.5 -20.5t-47.5 -52q68 -35 112 -142.5t48 -248.5q4 -117 -47 -208t-143 -147q-15 -10 -19 -16t-8 -11t-15.5 -10.5
t-39.5 -9.5q-154 -24 -203 -24l-565 -17l-35 1602zM698 969q74 2 112 25.5t53.5 60.5t15.5 82v94q-2 65 -44 111.5t-145 43.5l-297 -8l13 -417zM707 268q57 2 103 21.5t77 50.5t46 66.5t15 72.5q0 31 -19.5 68t-53 67.5t-82 51t-107.5 18.5l-278 -16l4 -412z" />
    <glyph glyph-name="glyph199" horiz-adv-x="1341" 
d="M125 17l70 1571l1030 -47l-17 -277l-706 33l-117 -1284z" />
    <glyph glyph-name="glyph200" horiz-adv-x="1317" 
d="M1097 1702l18 -1374h189l-82 -448l-107 284l-353 -6q-75 0 -106.5 -4t-79 -4t-82.5 4t-122 -2q-161 3 -162.5 -1.5t-140.5 -270.5q-56 404 -64.5 428.5t181.5 6.5q1 45 6 99q-12 90 -17.5 147.5t-7.5 102.5t-1 87t1 101v170t9.5 186.5t30 174.5t59.5 131q40 51 81 87
t95.5 58.5t126 32.5t170.5 10h358zM857 1397q-24 2 -65 3t-85 -2t-83 -14.5t-57 -31.5q-19 -23 -33.5 -46.5t-26.5 -62.5t-22.5 -99t-20.5 -157q-4 -41 -4 -98t3 -98t3 -91.5v-119.5q-7 -63 -9.5 -126t47.5 -53.5t85 9.5t63.5 -3.5t53.5 -3.5h59.5t44 3.5t34.5 -3.5z" />
    <glyph glyph-name="glyph201" horiz-adv-x="1288" 
d="M1075 1622l-8 -236l-629 -4l41 -503l508 41l17 -248l-504 4l35 -486l581 19l8 -164l-925 -20l-31 1568z" />
    <glyph glyph-name="glyph202" horiz-adv-x="2007" 
d="M991 1587l27 -555l448 578l299 12l-553 -776l666 -772l-342 -31l-467 506l16 -529l-282 -12l-31 526l-406 -507l-333 6l552 779l-618 731l299 7l477 -536l-34 559z" />
    <glyph glyph-name="glyph203" 
d="M110 1152q-229 355 287 384l131 -8q189 -25 226.5 -78t54.5 -74t20 -50t10 -100q26 -43 -28 -152t-29 -65q-24 -51 14 -75.5t80 -42t53.5 -24t5.5 -13.5q54 -36 65 -53.5t29 -72.5t28 -114.5t16 -110.5q7 -65 4 -127t-21 -117t-54 -101.5t-96 -78.5q-30 -16 -94 -25
t-138 -15t-149 -7q-74 -2 -126 -4q-90 -2 -148 2.5t-92 18.5t-53 38t-31 61t-22.5 88t-31.5 120l189 5q1 -70 19.5 -105.5t65.5 -49t129 -9.5t212 13q41 2 63.5 24.5t43.5 56.5t27.5 74t9.5 82q2 49 -11 107q-29 86 -54 114.5t-41.5 53.5t-68.5 38l-238 -12l-27 201
q206 32 215 54t35 44.5t34.5 82.5t14 76t-2 58.5t-69.5 84.5q-58 7 -160 5q-188 9 -107 -147q46 -24 -190 -55z" />
    <glyph glyph-name="glyph204" 
d="M1062 1642l131 -1552l-299 -29l-65 709l-342 -717l-240 -47l-133 1553l305 26l68 -702l297 729z" />
    <glyph glyph-name="glyph205" horiz-adv-x="1383" 
d="M1201 1547l-21 -1542l-302 3l1 716l-409 -681l-244 -21l-89 1498h318l64 -737l446 764h236zM478 1627l233 6l102 -131l-119 -194z" />
    <glyph glyph-name="glyph206" horiz-adv-x="1448" 
d="M432 1587l27 -555l448 578l299 12l-553 -776l666 -772l-342 -31l-467 506l16 -529l-282 -12l-94 1565z" />
    <glyph glyph-name="glyph207" horiz-adv-x="1276" 
d="M39 40l592 1573h77l305 -1579l-295 1l-130 760l-279 -756z" />
    <glyph glyph-name="glyph208" horiz-adv-x="1589" 
d="M387 1561l387 -752l301 803l254 22l103 -1499l-291 -20l-45 694l-277 -678l-360 662l30 -740l-251 -12l-103 1503z" />
    <glyph glyph-name="glyph209" horiz-adv-x="1468" 
d="M436 1593l53 -643l433 37l-17 627l320 16l82 -1569l-320 -16l-37 655l-446 -30l14 -647l-287 -3l-81 1569z" />
    <glyph glyph-name="glyph210" horiz-adv-x="1419" 
d="M240 1382q14 37 45.5 78t83 75t120 56.5t158.5 22.5q197 0 316.5 -36t186.5 -131t89.5 -264t22.5 -435q0 -193 -18.5 -332.5t-82 -229.5t-182.5 -131t-320 -35q-114 -16 -199 24t-143.5 117t-94.5 183.5t-52 225t-17 240.5t10 231.5t31.5 196.5t45.5 136v8zM426 614
q14 -43 28.5 -99t38 -107.5t61.5 -87t97 -35.5q72 0 141.5 17t110.5 65q21 24 34 64t22.5 90t13.5 109.5t4 121.5q0 213 -18.5 328.5t-58.5 169t-100.5 62.5t-144.5 9q-137 0 -190 -105.5t-53 -332.5z" />
    <glyph glyph-name="glyph211" 
d="M524 1612l364 -24l1 -3l305 -26l-133 -1553l-273 38l107 1273l-366 38l-115 -1294l-299 29l131 1552z" />
    <glyph glyph-name="glyph212" horiz-adv-x="1217" 
d="M705 1595q102 -2 171.5 -45t112.5 -111.5t60.5 -158.5t15.5 -186q-4 -86 -34 -161t-87 -131.5t-141 -89t-193 -34.5l-186 -2l-21 -660h-239l29 1590zM559 946q64 -2 108 11.5t70.5 38t37.5 57t13 67.5q0 33 -9 74t-32.5 76t-65.5 59.5t-106 26.5l-88 2l-2 -410z" />
    <glyph glyph-name="glyph213" horiz-adv-x="1325" 
d="M1176 467q2 -133 -26 -219t-90.5 -136.5t-162.5 -72t-248 -23.5q-55 0 -118.5 8.5t-124 28t-112.5 53t-85 84.5q-29 43 -44 125t-22.5 176.5t-7.5 188.5v162q2 170 8.5 306t49.5 232.5t139 150.5t276 58q150 4 252.5 -4t164.5 -47t93 -118t41 -216l-258 -6q-6 16 -7 27.5
t-4 21.5t-8 22.5t-20 30.5q-16 23 -41.5 35.5t-93.5 12.5q-49 0 -86 -3.5t-65.5 -11.5t-52 -21.5t-44.5 -33.5q-39 -41 -55 -116t-20.5 -161t-1 -168.5t3.5 -140.5q0 -61 2 -117.5t8 -103.5t19.5 -82t37.5 -51q19 -12 33 -18.5t30.5 -8.5t38 0t56.5 2q63 0 109 -1t77 11.5
t51.5 45t34.5 100.5z" />
    <glyph glyph-name="glyph214" horiz-adv-x="1374" 
d="M1202 1626l10 -256l-397 -29l84 -1304l-244 -17l-120 1303l-379 -43l-13 258z" />
    <glyph glyph-name="glyph215" horiz-adv-x="1493" 
d="M432 1573l313 -496l312 512l303 -8l-481 -784l-463 -747l-246 57l432 712l-471 758z" />
    <glyph glyph-name="glyph216" horiz-adv-x="1942" 
d="M1564 1351q36 -14 74.5 -45.5t68.5 -83t47 -120t9 -158.5q-16 -197 -61.5 -316.5t-146 -186.5t-271 -89.5t-436.5 -22.5q-193 0 -331 18.5t-223 82t-116.5 182.5t-9.5 320q-6 114 40.5 199t128.5 143.5t191.5 94.5t229 52t241.5 17t231 -10t194 -31.5t132 -45.5h8z
M781 1165q-44 -14 -101 -28.5t-110.5 -38t-92 -61.5t-43.5 -97q-6 -72 5.5 -141.5t56.5 -110.5q22 -21 61 -34t88 -22.5t108.5 -13.5t121.5 -4q213 0 330 18.5t173.5 58.5t70.5 100.5t21 144.5q11 137 -90.5 190t-328.5 53zM813 1656l343 -27l-82 -1620l-300 18z" />
    <glyph glyph-name="glyph217" horiz-adv-x="1497" 
d="M504 1581l268 -557l272 553h289l-372 -780l376 -768h-313l-252 495l-280 -487l-349 20l467 725l-432 807z" />
    <glyph glyph-name="glyph218" horiz-adv-x="1605" 
d="M448 1626l90 -1284l425 34l-7 1287l271 19l24 -1275l300 30l-112 -548l-183 239l-1033 -90l-35 1573z" />
    <glyph glyph-name="glyph219" horiz-adv-x="1395" 
d="M1084 1593l23 -437q4 -66 90 -1093q-151 -7 -211 -32t-71 262t-33 277q-33 -12 -47.5 -18t-28.5 -10.5t-38 -9.5t-73 -17q-26 -6 -46.5 -11.5t-40 -7.5t-43 -3t-54.5 1q-64 4 -102.5 11.5t-81.5 27.5q-43 19 -73 37.5t-51.5 41t-37 52t-31.5 72.5q-12 33 -22.5 83
t-17.5 102.5t-12 98.5t-7 72l-25 382l277 25l39 -501q8 -123 56 -182t167 -51q116 6 178.5 76.5t54.5 193.5l-41 527z" />
    <glyph glyph-name="glyph220" horiz-adv-x="1728" 
d="M576 1644l-56 -1356l209 1l89 1300l296 3l-81 -1290l182 10l96 1307l308 9l-99 -1297l-9 -279v0l-72 -1l-1199 -3l63 1590z" />
    <glyph glyph-name="glyph221" horiz-adv-x="1728" 
d="M315 1630l123 -1330l208 15l-85 1276l292 23l92 -1268l177 23l-77 1284l305 29l72 -1275l252 30l-112 -548l-183 239l-1187 -82l-146 1560z" />
    <glyph glyph-name="glyph222" horiz-adv-x="1217" 
d="M103 23l139 1387l-242 9v193l514 -4l-62 -662l186 -8q109 -5 188.5 -40.5t129 -93.5t69.5 -133.5t15 -162.5q-11 -96 -40 -185.5t-80 -157t-126.5 -108.5t-178.5 -40zM479 672l-50 -411l88 -1q64 1 109 24t73 57t42.5 75.5t18.5 74.5q2 36 -4.5 68t-30 57.5t-66 40.5
t-106.5 14z" />
    <glyph glyph-name="glyph223" horiz-adv-x="1507" 
d="M90 44l38 1501l244 5l-8 -627h189q114 0 199 -28.5t141 -81.5t82.5 -123.5t24.5 -151.5q1 -90 -20 -176.5t-69.5 -152t-121.5 -107.5t-175 -44zM416 668l-15 -391l92 7q64 0 108 24.5t68 58t36.5 72t14.5 68.5q-4 33 -12.5 65.5t-34.5 53.5t-70.5 35t-108.5 9zM1384 1567
l-70 -1508l-281 -11l85 1521z" />
    <glyph glyph-name="glyph224" horiz-adv-x="1217" 
d="M193 16l-29 1590h239l21 -660l186 -2q109 -2 193 -34.5t141 -89t87 -131.5t34 -161q2 -96 -15.5 -186t-60.5 -158.5t-112.5 -111.5t-171.5 -45zM485 674l2 -410l88 2q64 2 106 26.5t65.5 59.5t32.5 76t9 74q-2 35 -13 67.5t-37.5 57t-70.5 38t-108 11.5z" />
    <glyph glyph-name="glyph225" horiz-adv-x="1701" 
d="M643 1371q14 37 45.5 78t83 75t120 56.5t158.5 22.5q197 0 316.5 -36t186.5 -131t89.5 -264t22.5 -435q0 -193 -18.5 -332.5t-82 -229.5t-182.5 -131t-320 -35q-114 -16 -199 24t-143.5 117t-94.5 183.5t-52 225t-17 240.5t10 231.5t31.5 196.5t45.5 136v8zM829 603
q14 -43 28.5 -99t38 -107.5t61.5 -87t97 -35.5q72 0 141.5 17t110.5 65q21 24 34 64t22.5 90t13.5 109.5t4 121.5q0 213 -18.5 328.5t-58.5 169t-100.5 62.5t-144.5 9q-137 0 -190 -105.5t-53 -332.5zM100 1575l273 18l82 -1547l-309 -10zM391 956h173v-292h-173v292z" />
    <glyph glyph-name="glyph258" horiz-adv-x="1411" 
d="M1243 102l-271 -21l-29 388l-41 -4q-14 0 -22 -1t-12 -2t-9.5 -6t-17.5 -13q-8 -8 -22.5 -33t-63 -68t-245.5 -254l-306 -20q293 313 314.5 347t27.5 44q-51 8 -106.5 12.5t-83.5 18.5q-97 49 -153 134t-67 206q-2 35 -1 81t5.5 92t14.5 88t24 67q58 100 170 145
q27 10 45.5 19.5t40 15.5t52 10t82.5 8l575 31zM915 785l-29 344l-223 -14q-25 -3 -54.5 -6t-59.5 -9t-55.5 -17t-41.5 -30q-23 -24 -33 -43.5t-14 -37t-3 -34t3 -36.5q4 -50 38.5 -85.5t80.5 -39.5q22 -4 54 -5.5t60 -1.5q29 0 52.5 1.5t31.5 1.5z" />
    <glyph glyph-name="glyph262" horiz-adv-x="1346" 
d="M562 1342q202 -7 257.5 -18t82 -25.5t54.5 -51.5q39 -58 54 -131q19 -109 -47 -219q139 -43 168 -112.5t51 -215.5q22 -114 -29 -205t-143 -147q-15 -10 -19 -16t-8 -11t-15.5 -10.5t-39.5 -9.5q-154 -24 -203 -24l-565 -17l-29 1148zM693 875q109 51 131 95t18.5 77
t-25.5 76q-29 37 -69.5 40.5t-156.5 -10.5l-212 -44l-7 -255zM707 385q57 2 103 21.5t77 50.5t46 66.5t15 72.5q0 31 -21.5 56.5t-47 44t-58.5 29.5t-143 4l-284 -44l18 -313z" />
    <glyph glyph-name="glyph274" horiz-adv-x="1282" 
d="M1027 1282l40 -1648l-247 -24l-24 533h-199q-159 16 -231 48t-127.5 119.5t-64.5 192.5t-13 191q-2 96 6 183t28 162.5t87.5 135t234.5 99.5zM788 406l-24 542l-113 8q-64 -2 -115 -9t-78.5 -31t-67.5 -120q-8 -47 0 -107t16 -107.5t39.5 -99.5t151.5 -84z" />
    </font>
</defs>
</svg>
